<?xml version="1.0" encoding="UTF-8" standalone="no"?>
<svg
   role="img"
   viewBox="0 0 24 24"
   version="1.1"
   id="svg6"
   sodipodi:docname="adobephotoshop.svg"
   inkscape:version="1.1 (c68e22c387, 2021-05-23)"
   xmlns:inkscape="http://www.inkscape.org/namespaces/inkscape"
   xmlns:sodipodi="http://sodipodi.sourceforge.net/DTD/sodipodi-0.dtd"
   xmlns="http://www.w3.org/2000/svg"
   xmlns:svg="http://www.w3.org/2000/svg">
  <defs
     id="defs10" />
  <sodipodi:namedview
     id="namedview8"
     pagecolor="#ffffff"
     bordercolor="#000000"
     borderopacity="0.25"
     inkscape:showpageshadow="2"
     inkscape:pageopacity="0.0"
     inkscape:pagecheckerboard="0"
     inkscape:deskcolor="#d1d1d1"
     showgrid="false"
     inkscape:zoom="34.541667"
     inkscape:cx="10.885404"
     inkscape:cy="12"
     inkscape:window-width="1347"
     inkscape:window-height="1041"
     inkscape:window-x="325"
     inkscape:window-y="357"
     inkscape:window-maximized="0"
     inkscape:current-layer="svg6"
     inkscape:pageshadow="2" />
  <title
     id="title2">Adobe Photoshop</title>
  <path
     d="M9.85 8.42c-.37-.15-.77-.21-1.18-.2-.26 0-.49 0-.68.01-.2-.01-.34 0-.41.01v3.36c.14.01.27.02.39.02h.53c.39 0 .78-.06 1.15-.18.32-.09.6-.28.82-.53.21-.25.31-.59.31-1.03.01-.31-.07-.62-.23-.89-.17-.26-.41-.46-.7-.57zM19.75.3H4.25C1.9.3 0 2.2 0 4.55v14.899c0 2.35 1.9 4.25 4.25 4.25h15.5c2.35 0 4.25-1.9 4.25-4.25V4.55C24 2.2 22.1.3 19.75.3zm-7.391 11.65c-.399.56-.959.98-1.609 1.22-.68.25-1.43.34-2.25.34-.24 0-.4 0-.5-.01s-.24-.01-.43-.01v3.209c.01.07-.04.131-.11.141H5.52c-.08 0-.12-.041-.12-.131V6.42c0-.07.03-.11.1-.11.17 0 .33 0 .56-.01.24-.01.49-.01.76-.02s.56-.01.87-.02c.31-.01.61-.01.91-.01.82 0 1.5.1 2.06.31.5.17.96.45 1.34.82.32.32.57.71.73 1.14.149.42.229.85.229 1.3.001.86-.199 1.57-.6 2.13zm7.091 3.89c-.28.4-.671.709-1.12.891-.49.209-1.09.318-1.811.318-.459 0-.91-.039-1.359-.129-.35-.061-.7-.17-1.02-.32-.07-.039-.121-.109-.111-.189v-1.74c0-.029.011-.07.041-.09.029-.02.06-.01.09.01.39.23.8.391 1.24.49.379.1.779.15 1.18.15.38 0 .65-.051.83-.141.16-.07.27-.24.27-.42 0-.141-.08-.27-.24-.4-.16-.129-.489-.279-.979-.471-.51-.18-.979-.42-1.42-.719-.31-.221-.569-.51-.761-.85-.159-.32-.239-.67-.229-1.021 0-.43.12-.84.341-1.21.25-.4.619-.72 1.049-.92.469-.239 1.059-.349 1.769-.349.41 0 .83.03 1.24.09.3.04.59.12.86.23.039.01.08.05.1.09.01.04.02.08.02.12v1.63c0 .04-.02.08-.05.1-.09.02-.14.02-.18 0-.3-.16-.62-.27-.96-.34-.37-.08-.74-.13-1.12-.13-.2-.01-.41.02-.601.07-.129.03-.24.1-.31.2-.05.08-.08.18-.08.27s.04.18.101.26c.09.11.209.2.34.27.229.12.47.23.709.33.541.18 1.061.43 1.541.73.33.209.6.49.789.83.16.318.24.67.23 1.029.011.471-.129.94-.389 1.331z"
     id="path4"
     style="fill:#e41884;" />
  <path
     style="fill:#ffffff;stroke-width:0.328258;stroke-linecap:round"
     d="m 5.4313242,16.774472 c -0.00967,-0.02519 -0.017573,-2.376974 -0.017573,-5.226194 V 6.3678781 l 0.065139,-0.02602 c 0.035826,-0.014311 0.7751508,-0.040131 1.6429433,-0.057379 1.8962108,-0.037687 2.3573316,-0.016087 3.0253315,0.1417123 0.707891,0.1672232 1.320832,0.4832013 1.782929,0.9191202 0.281234,0.2653013 0.466158,0.5190728 0.649363,0.8911174 0.269015,0.546305 0.380235,1.1120955 0.35284,1.794934 -0.03994,0.995597 -0.330955,1.70881 -0.949718,2.327573 -0.459182,0.459182 -1.014624,0.762213 -1.724767,0.940976 -0.550127,0.138482 -0.837722,0.16779 -1.7970159,0.183126 l -0.9047044,0.01446 v 1.626641 c 0,1.226565 -0.00854,1.635186 -0.034741,1.661382 -0.025704,0.0257 -0.299754,0.03474 -1.0535974,0.03474 -0.9023575,0 -1.0208661,-0.0052 -1.0364294,-0.04579 z M 8.9312425,11.606151 C 9.596955,11.524893 10.049636,11.34401 10.363056,11.034023 10.59359,10.806015 10.699463,10.604949 10.755988,10.287799 10.906316,9.4443402 10.605897,8.7581899 9.9539198,8.4558896 9.4914835,8.2414733 9.0755702,8.1852639 8.1568154,8.2130161 l -0.6007237,0.018146 v 1.6871688 1.6871681 l 0.094089,0.01168 c 0.2087945,0.02591 1.0368452,0.01879 1.2810616,-0.01102 z"
     id="path431" />
  <path
     style="fill:#ffffff;stroke-width:0.328258;stroke-linecap:round"
     d="m 15.604343,16.97578 c -0.634695,-0.08599 -1.359143,-0.296103 -1.497306,-0.434266 -0.06598,-0.06598 -0.06602,-0.06665 -0.06602,-0.992048 0,-0.590677 0.01056,-0.932552 0.02917,-0.94405 0.01604,-0.0099 0.175631,0.05337 0.354644,0.140628 0.550064,0.268127 1.145423,0.427512 1.79348,0.480135 0.944119,0.07667 1.470479,-0.119417 1.470479,-0.547788 0,-0.32067 -0.255426,-0.508649 -1.201448,-0.884197 -1.031314,-0.409407 -1.574259,-0.750583 -1.955308,-1.228679 -0.341695,-0.42872 -0.478072,-0.859583 -0.4539,-1.434031 0.03714,-0.882697 0.503572,-1.5898666 1.324685,-2.0084052 0.557009,-0.2839194 0.965686,-0.3639824 1.851713,-0.3627649 0.71636,9.844e-4 1.183484,0.049523 1.640701,0.170484 0.349828,0.09255 0.479809,0.1560259 0.504817,0.2465242 0.02707,0.097965 0.03041,1.7144969 0.0036,1.7536199 -0.05298,0.07738 -0.13581,0.06739 -0.389911,-0.04703 -0.477339,-0.214934 -1.069517,-0.339842 -1.730273,-0.364965 -0.803444,-0.03055 -1.123829,0.109561 -1.151523,0.50358 -0.01052,0.149621 -0.0027,0.179303 0.07609,0.287371 0.0483,0.06628 0.149942,0.163257 0.225869,0.215497 0.16041,0.110365 0.679904,0.349427 1.095642,0.504196 0.669098,0.24909 1.372715,0.649567 1.678502,0.955354 0.432557,0.432557 0.606803,0.873617 0.605925,1.533749 -5.87e-4,0.441753 -0.05879,0.694634 -0.248609,1.080182 -0.136353,0.276949 -0.443524,0.625035 -0.7353,0.833242 -0.385274,0.274926 -0.982905,0.485001 -1.590024,0.558914 -0.356113,0.04335 -1.26572,0.03487 -1.635705,-0.01525 z"
     id="path433" />
</svg>
