<?xml version="1.0" encoding="UTF-8" standalone="no"?>
<svg
   role="img"
   viewBox="0 0 24 24"
   version="1.1"
   id="svg6"
   sodipodi:docname="adobeindesign.svg"
   inkscape:version="1.1 (c68e22c387, 2021-05-23)"
   xmlns:inkscape="http://www.inkscape.org/namespaces/inkscape"
   xmlns:sodipodi="http://sodipodi.sourceforge.net/DTD/sodipodi-0.dtd"
   xmlns="http://www.w3.org/2000/svg"
   xmlns:svg="http://www.w3.org/2000/svg">
  <defs
     id="defs10" />
  <sodipodi:namedview
     id="namedview8"
     pagecolor="#ffffff"
     bordercolor="#000000"
     borderopacity="0.25"
     inkscape:showpageshadow="2"
     inkscape:pageopacity="0.0"
     inkscape:pagecheckerboard="0"
     inkscape:deskcolor="#d1d1d1"
     showgrid="false"
     inkscape:zoom="34.541667"
     inkscape:cx="10.899879"
     inkscape:cy="12"
     inkscape:window-width="1920"
     inkscape:window-height="1057"
     inkscape:window-x="-8"
     inkscape:window-y="-8"
     inkscape:window-maximized="1"
     inkscape:current-layer="svg6"
     inkscape:pageshadow="2" />
  <title
     id="title2">Adobe InDesign</title>
  <path
     d="M4.25.3C1.9.3 0 2.2 0 4.55v14.9c0 2.35 1.9 4.25 4.25 4.25h15.5c2.35 0 4.25-1.9 4.25-4.25V4.55C24 2.2 22.1.3 19.75.3zm11.31 5.13h2.03c.05-.01.09.03.1.07v9.54c0 .18.01.38.02.6.02.21.03.41.04.58 0 .07-.03.13-.1.16-.52.22-1.07.38-1.63.48-.5.09-1.02.14-1.54.14-.74.01-1.48-.14-2.15-.45-.63-.29-1.15-.77-1.51-1.36-.37-.61-.55-1.37-.55-2.28-.01-.74.18-1.47.55-2.11.38-.65.93-1.19 1.59-1.55.7-.39 1.54-.58 2.53-.58.05 0 .12 0 .21.01s.19.01.31.02V5.54c0-.07.03-.11.1-.11zm-8.93.86h1.95c.06-.01.12.03.13.1.01.01.01.02.01.03v10.26c0 .11-.05.16-.14.16H6.62c-.09 0-.13-.05-.13-.16V6.42c0-.09.05-.13.14-.13zm8.23 4.24c-.39 0-.78.08-1.13.26-.34.17-.63.42-.85.74-.22.32-.33.75-.33 1.27-.01.35.05.7.17 1.03.1.27.25.51.45.71.19.18.42.32.68.4.27.09.55.13.83.13.15 0 .29-.01.42-.02.13.01.25-.01.36-.05v-4.4c-.09-.02-.18-.04-.27-.05-.11-.01-.22-.02-.33-.02z"
     id="path4"
     style="fill:#e41884;fill-opacity:1" />
  <path
     style="fill:#ffffff;stroke-width:0.328258;stroke-linecap:round"
     d="m 6.5272474,16.784077 c -0.00757,-0.0199 -0.010415,-2.381182 -0.00633,-5.247286 l 0.00743,-5.2110974 1.0566948,-0.00765 c 0.9677116,-0.007 1.0597422,-0.00349 1.092883,0.041721 0.047506,0.06481 0.053633,10.3159064 0.00622,10.4045014 -0.028789,0.05379 -0.071569,0.056 -1.086554,0.056 -0.8186299,0 -1.0596833,-0.0081 -1.0703429,-0.03619 z"
     id="path431" />
  <path
     style="fill:#ffffff;stroke-width:0.328258;stroke-linecap:round"
     d="m 13.910736,16.962036 c -0.565915,-0.06164 -1.208452,-0.24618 -1.679132,-0.482247 -0.709298,-0.355745 -1.324827,-1.021423 -1.624784,-1.75716 -0.223426,-0.548021 -0.313675,-1.076504 -0.311683,-1.825162 0.0011,-0.420507 0.01346,-0.577582 0.06391,-0.813628 0.180154,-0.842865 0.555096,-1.54202 1.138241,-2.1224769 0.875518,-0.8714817 2.09095,-1.3059818 3.556994,-1.2715759 l 0.419783,0.00985 0.01448,-1.6212304 0.01448,-1.6212304 1.053288,-0.0076 c 0.753317,-0.00544 1.064565,0.00176 1.092883,0.025258 0.03321,0.027559 0.03982,0.8508183 0.041,5.1028976 7.72e-4,2.788521 0.01206,5.200316 0.02507,5.359544 0.01302,0.159228 0.01353,0.316659 0.0011,0.349846 -0.04059,0.108703 -0.915422,0.404248 -1.571188,0.530798 -0.719544,0.138858 -1.701396,0.202185 -2.234472,0.144118 z m 1.502971,-1.93577 0.07519,-0.02859 -0.0074,-2.206942 -0.0074,-2.206941 -0.101327,-0.02474 c -0.05573,-0.01361 -0.277201,-0.02644 -0.492159,-0.02852 -0.469862,-0.0045 -0.77226,0.05929 -1.132488,0.239041 -0.603845,0.301318 -1.005685,0.786079 -1.145063,1.381352 -0.0815,0.348083 -0.07428,1.069501 0.014,1.397931 0.230928,0.859189 0.726247,1.331462 1.563949,1.491184 0.24701,0.0471 1.097632,0.03759 1.232733,-0.01377 z"
     id="path433" />
</svg>
