<?xml version="1.0" encoding="UTF-8" standalone="no"?>
<svg
   role="img"
   viewBox="0 0 24 24"
   version="1.1"
   id="svg5291"
   sodipodi:docname="angular.svg"
   inkscape:version="1.2.2 (732a01da63, 2022-12-09)"
   xmlns:inkscape="http://www.inkscape.org/namespaces/inkscape"
   xmlns:sodipodi="http://sodipodi.sourceforge.net/DTD/sodipodi-0.dtd"
   xmlns="http://www.w3.org/2000/svg"
   xmlns:svg="http://www.w3.org/2000/svg">
  <defs
     id="defs5295" />
  <sodipodi:namedview
     id="namedview5293"
     pagecolor="#ffffff"
     bordercolor="#000000"
     borderopacity="0.25"
     inkscape:showpageshadow="2"
     inkscape:pageopacity="0.0"
     inkscape:pagecheckerboard="0"
     inkscape:deskcolor="#d1d1d1"
     showgrid="false"
     inkscape:zoom="34.541667"
     inkscape:cx="10.885404"
     inkscape:cy="12.014475"
     inkscape:window-width="1920"
     inkscape:window-height="1009"
     inkscape:window-x="-8"
     inkscape:window-y="-8"
     inkscape:window-maximized="1"
     inkscape:current-layer="svg5291" />
  <title
     id="title5287">Angular</title>
  <path
     d="M9.931 12.645h4.138l-2.07-4.908m0-7.737L.68 3.982l1.726 14.771L12 24l9.596-5.242L23.32 3.984 11.999.001zm7.064 18.31h-2.638l-1.422-3.503H8.996l-1.422 3.504h-2.64L12 2.65z"
     id="path5289" />
  <path
     style="fill:#0000ff;stroke-width:0.328258;stroke-linecap:round"
     d="M 7.1951991,21.35382 2.4193487,18.739724 1.5587386,11.374687 C 1.085403,7.3239167 0.70715327,4.0019742 0.71818363,3.9925928 0.74456207,3.970157 11.895803,0.05055584 11.971049,0.03727078 12.018856,0.02883038 23.25078,3.960068 23.289507,3.9987958 c 0.0068,0.00676 -0.374554,3.3275311 -0.847369,7.3794872 l -0.859664,7.367193 -4.776761,2.61133 C 14.178493,22.793037 12.015923,23.968086 12,23.968026 11.984077,23.967968 9.8219169,22.791573 7.1951991,21.35382 Z M 8.1675897,16.892642 C 8.48387,16.112425 8.8029319,15.327503 8.8766163,15.148372 l 0.1339712,-0.325694 h 2.9893515 2.989352 l 0.192272,0.470446 c 0.10575,0.258746 0.42486,1.043667 0.709133,1.74427 l 0.51686,1.273824 1.335426,0.0075 c 0.734484,0.0041 1.335426,0.002 1.335426,-0.0048 0,-0.04177 -7.059214,-15.6545929 -7.07804,-15.6544591 -0.01949,1.385e-4 -7.0787757,15.6093281 -7.0787757,15.6522911 0,0.008 0.600962,0.0111 1.3354711,0.007 l 1.3354712,-0.0075 z"
     id="path5416" />
  <path
     style="fill:#0000ff;stroke-width:0.328258;stroke-linecap:round"
     d="m 9.9676188,12.600724 c 0.00663,-0.01194 0.4657492,-1.099548 1.0202712,-2.416902 0.554523,-1.3173533 1.011078,-2.3921422 1.014568,-2.3884194 0.0047,0.00499 1.27876,3.0204884 1.99972,4.7329444 l 0.03961,0.09409 h -2.04311 c -1.123711,0 -2.0376883,-0.0098 -2.0310612,-0.02171 z"
     id="path5418" />
  <path
     style="fill:#ffffff;stroke-width:0.328258;stroke-linecap:round"
     d="m 4.9873415,18.24638 c 0.00812,-0.02803 1.5680432,-3.490288 3.4665025,-7.693907 1.898459,-4.203619 3.472087,-7.6927672 3.49695,-7.7536629 l 0.04521,-0.1107195 0.08356,0.1830958 c 0.52609,1.1527418 6.940945,15.3909636 6.940945,15.4059166 0,0.01113 -0.582342,0.01685 -1.294092,0.0127 l -1.294092,-0.0075 -0.707699,-1.74427 -0.707699,-1.744271 H 12 8.9830752 l -0.7076992,1.744271 -0.7076991,1.74427 -1.2975469,0.0075 c -1.2269703,0.0071 -1.2967441,0.0048 -1.2827885,-0.04343 z m 9.0826225,-5.619678 c 0,-0.05491 -2.051262,-4.8820754 -2.072693,-4.8775947 -0.02251,0.00471 -2.0672348,4.8295977 -2.0672348,4.8780057 0,0.01335 0.9314838,0.02427 2.0699638,0.02427 1.13848,0 2.069964,-0.01111 2.069964,-0.02468 z"
     id="path5420" />
</svg>
