<?xml version="1.0" encoding="UTF-8" standalone="no"?>
<svg
   role="img"
   viewBox="0 0 24 24"
   version="1.1"
   id="svg6"
   sodipodi:docname="codepen.svg"
   inkscape:version="1.2.2 (732a01da63, 2022-12-09)"
   xmlns:inkscape="http://www.inkscape.org/namespaces/inkscape"
   xmlns:sodipodi="http://sodipodi.sourceforge.net/DTD/sodipodi-0.dtd"
   xmlns="http://www.w3.org/2000/svg"
   xmlns:svg="http://www.w3.org/2000/svg">
  <defs
     id="defs10" />
  <sodipodi:namedview
     id="namedview8"
     pagecolor="#ffffff"
     bordercolor="#000000"
     borderopacity="0.25"
     inkscape:showpageshadow="2"
     inkscape:pageopacity="0.0"
     inkscape:pagecheckerboard="0"
     inkscape:deskcolor="#d1d1d1"
     showgrid="false"
     inkscape:zoom="34.541667"
     inkscape:cx="10.335344"
     inkscape:cy="12.014475"
     inkscape:window-width="1920"
     inkscape:window-height="1009"
     inkscape:window-x="-8"
     inkscape:window-y="-8"
     inkscape:window-maximized="1"
     inkscape:current-layer="svg6" />
  <title
     id="title2">CodePen</title>
  <path
     d="M18.144 13.067v-2.134L16.55 12zm1.276 1.194a.628.628 0 01-.006.083l-.005.028-.011.053-.01.031c-.005.016-.01.031-.017.047l-.014.03a.78.78 0 01-.021.043l-.019.03a.57.57 0 01-.08.1l-.026.025a.602.602 0 01-.036.03l-.029.022-.01.008-6.782 4.522a.637.637 0 01-.708 0L4.864 14.79l-.01-.008a.599.599 0 01-.065-.052l-.026-.025-.032-.034-.021-.028a.588.588 0 01-.067-.11l-.014-.031a.644.644 0 01-.017-.047l-.01-.03c-.004-.018-.008-.036-.01-.054l-.006-.028a.628.628 0 01-.006-.083V9.739c0-.028.002-.055.006-.083l.005-.027.011-.054.01-.03a.574.574 0 01.12-.217l.031-.034.026-.025a.62.62 0 01.065-.052l.01-.008 6.782-4.521a.638.638 0 01.708 0l6.782 4.521.01.008.03.022.035.03c.01.008.017.016.026.025a.545.545 0 01.08.1l.019.03a.633.633 0 01.021.043l.014.03c.007.016.012.032.017.047l.01.031c.004.018.008.036.01.054l.006.027a.619.619 0 01.006.083zM12 0C5.373 0 0 5.372 0 12 0 18.627 5.373 24 12 24c6.628 0 12-5.372 12-12 0-6.627-5.372-12-12-12m0 10.492L9.745 12 12 13.51 14.255 12zm.638 4.124v2.975l4.996-3.33-2.232-1.493zm-6.272-.356l4.996 3.33v-2.974l-2.764-1.849zm11.268-4.52l-4.996-3.33v2.974l2.764 1.85zm-6.272-.356V6.41L6.366 9.74l2.232 1.493zm-5.506 1.549v2.134L7.45 12Z"
     id="path4"
     style="fill:#999999" />
  <path
     style="fill:#ffffff;stroke-width:0.328258;stroke-linecap:round"
     d="M 11.696019,19.315607 C 11.616405,19.271493 10.023857,18.215704 8.1570224,16.969409 5.0060216,14.865806 4.757058,14.693686 4.6829573,14.567631 L 4.6031363,14.431846 V 12 9.5681544 L 4.6844643,9.4297972 C 4.760605,9.3002643 4.9841842,9.1458146 8.1898202,7.0082758 10.073036,5.7525358 11.667644,4.6976675 11.733394,4.6641242 c 0.148769,-0.075896 0.355601,-0.078467 0.514278,-0.00639 0.06457,0.029327 1.662952,1.0839095 3.551966,2.3435158 3.215661,2.1442231 3.439753,2.2990118 3.515898,2.4285508 l 0.08133,0.1383572 0.0087,2.330519 c 0.0048,1.281785 9.82e-4,2.384096 -0.0084,2.449579 -0.04121,0.287214 0.104098,0.180185 -3.59246,2.646155 -1.880177,1.254265 -3.4723,2.307925 -3.53805,2.341469 -0.174431,0.08899 -0.387039,0.08144 -0.570587,-0.02027 z m -0.332931,-3.21727 V 14.594744 L 10.00965,13.688814 C 9.2652593,13.190552 8.6301568,12.783018 8.5983112,12.783182 c -0.052161,2.68e-4 -2.2436671,1.441075 -2.2436671,1.4751 0,0.01248 4.9825079,3.343648 5.0011789,3.343648 0.004,0 0.0073,-0.676617 0.0073,-1.503593 z m 3.814234,-0.1811 c 1.357419,-0.904635 2.468034,-1.651179 2.468034,-1.658988 0,-0.034 -2.191539,-1.474799 -2.243667,-1.475067 -0.03185,-1.74e-4 -0.666948,0.40737 -1.411339,0.905632 l -1.353438,0.90593 v 1.505302 c 0,1.196493 0.0074,1.500857 0.03619,1.48364 0.0199,-0.01191 1.146803,-0.761816 2.504222,-1.666449 z m -2.048259,-3.14281 C 13.739946,12.364415 14.2399,12.015923 14.240074,12 14.240247,11.98408 13.736265,11.632805 13.120113,11.219395 L 11.999836,10.46774 10.880438,11.219395 C 10.264769,11.632805 9.7604303,11.984077 9.7596851,12 9.758429,12.026836 11.959188,13.519903 12,13.519903 c 0.0101,0 0.518181,-0.335464 1.129063,-0.745476 z M 6.660542,12.548503 c 0.4368225,-0.295429 0.7942228,-0.542372 0.7942228,-0.548764 0,-0.01501 -1.5822577,-1.085384 -1.6044522,-1.085384 -0.00923,0 -0.016778,0.48854 -0.016778,1.085645 0,0.597105 0.00738,1.085645 0.016392,1.085645 0.00902,0 0.3737927,-0.241714 0.8106154,-0.537142 z M 18.166466,12 c 0,-0.597105 -0.0074,-1.085645 -0.01639,-1.085645 -0.04987,0 -1.605819,1.081769 -1.585366,1.102222 0.04268,0.04268 1.557322,1.06611 1.580046,1.067623 0.01194,7.95e-4 0.02171,-0.487095 0.02171,-1.0842 z M 10.012457,10.308427 11.363088,9.4052561 V 7.8999544 c 0,-1.1964934 -0.0074,-1.5008579 -0.03619,-1.4836407 -0.157068,0.094015 -4.9722559,3.3144802 -4.9722559,3.3255144 0,0.036803 2.2202099,1.4913589 2.2609491,1.4812459 0.025428,-0.0063 0.6540165,-0.417903 1.3968638,-0.914647 z m 6.541042,0.175813 c 0.600521,-0.40056 1.091857,-0.7346795 1.091857,-0.7424886 0,-0.010983 -4.81588,-3.2318371 -4.972256,-3.3254377 -0.02876,-0.017217 -0.03619,0.2872686 -0.03619,1.4842472 v 1.5059082 l 1.367913,0.9142629 c 0.752352,0.502845 1.387917,0.909208 1.412365,0.90303 0.02445,-0.0062 0.535787,-0.338963 1.136309,-0.739522 z"
     id="path985" />
</svg>
