<?xml version="1.0" encoding="UTF-8" standalone="no"?>
<svg
   role="img"
   viewBox="0 0 24 24"
   version="1.1"
   id="svg5019"
   sodipodi:docname="css3.svg"
   inkscape:version="1.2.2 (732a01da63, 2022-12-09)"
   xmlns:inkscape="http://www.inkscape.org/namespaces/inkscape"
   xmlns:sodipodi="http://sodipodi.sourceforge.net/DTD/sodipodi-0.dtd"
   xmlns="http://www.w3.org/2000/svg"
   xmlns:svg="http://www.w3.org/2000/svg">
  <defs
     id="defs5023" />
  <sodipodi:namedview
     id="namedview5021"
     pagecolor="#ffffff"
     bordercolor="#000000"
     borderopacity="0.25"
     inkscape:showpageshadow="2"
     inkscape:pageopacity="0.0"
     inkscape:pagecheckerboard="0"
     inkscape:deskcolor="#d1d1d1"
     showgrid="false"
     inkscape:zoom="34.541667"
     inkscape:cx="10.885404"
     inkscape:cy="12.014475"
     inkscape:window-width="1920"
     inkscape:window-height="1009"
     inkscape:window-x="-8"
     inkscape:window-y="-8"
     inkscape:window-maximized="1"
     inkscape:current-layer="svg5019" />
  <title
     id="title5015">CSS3</title>
  <path
     d="M1.5 0h21l-1.91 21.563L11.977 24l-8.565-2.438L1.5 0zm17.09 4.413L5.41 4.41l.213 2.622 10.125.002-.255 2.716h-6.64l.24 2.573h6.182l-.366 3.523-2.91.804-2.956-.81-.188-2.11h-2.61l.29 3.855L12 19.288l5.373-1.53L18.59 4.414z"
     id="path5017"
     style="fill:#0000ff" />
  <path
     style="fill:#ffffff;stroke-width:0.328258;stroke-linecap:round"
     d="M 9.2833563,18.424772 C 7.7892024,17.958811 6.5624905,17.57328 6.5573299,17.568037 6.5521694,17.562794 6.4881632,16.750784 6.4150938,15.763571 6.3420246,14.776357 6.2755574,13.919649 6.2673891,13.859774 l -0.014851,-0.108863 1.295747,0.0075 1.295747,0.0075 0.092205,1.037743 c 0.050713,0.570758 0.096391,1.041596 0.1015067,1.046306 0.021876,0.02014 2.9097692,0.802441 2.9622572,0.802447 0.0795,10e-6 2.883639,-0.778364 2.90931,-0.807568 0.01133,-0.01289 0.09536,-0.752993 0.186721,-1.64467 0.09136,-0.891676 0.173272,-1.683112 0.182018,-1.758745 l 0.0159,-0.137515 H 12.198978 9.1040042 L 8.9936601,11.08082 C 8.9329705,10.408082 8.8769367,9.8348613 8.8691401,9.8069964 8.8556983,9.758957 9.0274961,9.7563329 12.186228,9.7563329 h 3.331263 l 3.65e-4,-0.065139 c 2.02e-4,-0.035826 0.05222,-0.612304 0.115607,-1.2810615 0.06338,-0.6687575 0.11533,-1.258263 0.115437,-1.3100121 l 1.95e-4,-0.094089 h -5.051869 c -2.7785288,0 -5.0531727,-0.00326 -5.0547646,-0.00724 C 5.6408694,6.994813 5.5917796,6.4150784 5.533373,5.7104946 L 5.4271792,4.4294331 h 6.5755198 6.57552 l -0.01021,0.065139 c -0.0056,0.035826 -0.279245,3.0289505 -0.608067,6.6513869 -0.328822,3.622437 -0.600658,6.589818 -0.604082,6.594181 -0.0034,0.0044 -1.196866,0.346609 -2.652093,0.760546 -1.455227,0.413938 -2.658895,0.756816 -2.674817,0.761951 -0.01592,0.0051 -1.251441,-0.371903 -2.7455947,-0.837865 z"
     id="path5279" />
</svg>
