<?xml version="1.0" encoding="UTF-8" standalone="no"?>
<svg
   role="img"
   viewBox="0 0 24 24"
   version="1.1"
   id="svg5146"
   sodipodi:docname="cypress.svg"
   inkscape:version="1.2.2 (732a01da63, 2022-12-09)"
   xmlns:inkscape="http://www.inkscape.org/namespaces/inkscape"
   xmlns:sodipodi="http://sodipodi.sourceforge.net/DTD/sodipodi-0.dtd"
   xmlns="http://www.w3.org/2000/svg"
   xmlns:svg="http://www.w3.org/2000/svg">
  <defs
     id="defs5150" />
  <sodipodi:namedview
     id="namedview5148"
     pagecolor="#ffffff"
     bordercolor="#000000"
     borderopacity="0.25"
     inkscape:showpageshadow="2"
     inkscape:pageopacity="0.0"
     inkscape:pagecheckerboard="0"
     inkscape:deskcolor="#d1d1d1"
     showgrid="false"
     inkscape:zoom="34.541667"
     inkscape:cx="10.885404"
     inkscape:cy="12.014475"
     inkscape:window-width="1920"
     inkscape:window-height="1009"
     inkscape:window-x="-8"
     inkscape:window-y="-8"
     inkscape:window-maximized="1"
     inkscape:current-layer="svg5146" />
  <title
     id="title5142">Cypress</title>
  <path
     d="M11.998 0C5.366 0 0 5.367 0 12a11.992 11.992 0 0 0 12 12c6.633 0 12-5.367 12-12-.001-6.633-5.412-12-12.002-12zM6.37 14.575c.392.523.916.742 1.657.742.35 0 .699-.044 1.004-.175.306-.13.655-.306 1.09-.567l1.223 1.745c-1.003.83-2.138 1.222-3.447 1.222-1.048 0-1.92-.218-2.705-.654a4.393 4.393 0 0 1-1.746-1.92c-.392-.83-.611-1.79-.611-2.925 0-1.09.219-2.094.61-2.923a4.623 4.623 0 0 1 1.748-2.007c.741-.48 1.657-.698 2.661-.698.699 0 1.353.087 1.877.305a5.64 5.64 0 0 1 1.614.96l-1.222 1.658A4.786 4.786 0 0 0 9.12 8.77c-.305-.13-.698-.174-1.048-.174-1.483 0-2.225 1.134-2.225 3.446-.043 1.18.175 2.008.524 2.532H6.37zm12 2.705c-.436 1.353-1.091 2.357-2.008 3.098-.916.743-2.138 1.135-3.665 1.266l-.305-2.05c1.003-.132 1.745-.35 2.225-.7.174-.13.524-.523.524-.523L11.519 6.764h3.01l2.095 8.683 2.226-8.683h2.923L18.37 17.28z"
     id="path5144"
     style="fill:#0000ff" />
  <path
     style="fill:#ffffff;stroke-width:0.328258;stroke-linecap:round"
     d="m 12.69575,21.531966 c -0.03629,-0.211257 -0.275967,-1.848374 -0.275967,-1.884982 0,-0.02696 0.07131,-0.05074 0.224367,-0.07482 0.928149,-0.146014 1.667174,-0.402435 2.022811,-0.70186 0.190646,-0.160512 0.474173,-0.469298 0.474173,-0.516416 0,-0.02004 -0.80772,-2.624938 -1.794934,-5.788655 -0.987213,-3.163717 -1.794933,-5.7608963 -1.794933,-5.7715098 0,-0.010613 0.667671,-0.019158 1.483715,-0.018989 l 1.483715,3.084e-4 1.039243,4.3205604 c 0.571583,2.376308 1.048173,4.330756 1.059087,4.343218 0.01091,0.01246 0.196077,-0.664981 0.411471,-1.505429 0.215395,-0.840447 0.715887,-2.79495 1.112204,-4.3433415 l 0.720577,-2.8152559 1.440289,-1.844e-4 c 0.792159,-1.015e-4 1.44029,0.0078 1.44029,0.017554 0,0.064131 -3.504814,10.8298268 -3.608697,11.0847948 -0.643069,1.578318 -1.699551,2.687344 -3.078879,3.232003 -0.554354,0.2189 -1.229793,0.385522 -1.919456,0.473506 -0.442417,0.05644 -0.420268,0.05899 -0.439076,-0.0505 z"
     id="path5271" />
</svg>
