<?xml version="1.0" encoding="UTF-8" standalone="no"?>
<svg
   role="img"
   viewBox="0 0 24 24"
   version="1.1"
   id="svg6"
   sodipodi:docname="figma.svg"
   inkscape:version="1.2.2 (732a01da63, 2022-12-09)"
   xmlns:inkscape="http://www.inkscape.org/namespaces/inkscape"
   xmlns:sodipodi="http://sodipodi.sourceforge.net/DTD/sodipodi-0.dtd"
   xmlns="http://www.w3.org/2000/svg"
   xmlns:svg="http://www.w3.org/2000/svg">
  <defs
     id="defs10" />
  <sodipodi:namedview
     id="namedview8"
     pagecolor="#ffffff"
     bordercolor="#000000"
     borderopacity="0.25"
     inkscape:showpageshadow="2"
     inkscape:pageopacity="0.0"
     inkscape:pagecheckerboard="0"
     inkscape:deskcolor="#d1d1d1"
     showgrid="false"
     inkscape:zoom="34.541667"
     inkscape:cx="10.885404"
     inkscape:cy="12.014475"
     inkscape:window-width="1920"
     inkscape:window-height="1009"
     inkscape:window-x="-8"
     inkscape:window-y="-8"
     inkscape:window-maximized="1"
     inkscape:current-layer="svg6" />
  <title
     id="title2">Figma</title>
  <path
     d="M15.852 8.981h-4.588V0h4.588c2.476 0 4.49 2.014 4.49 4.49s-2.014 4.491-4.49 4.491zM12.735 7.51h3.117c1.665 0 3.019-1.355 3.019-3.019s-1.355-3.019-3.019-3.019h-3.117V7.51zm0 1.471H8.148c-2.476 0-4.49-2.014-4.49-4.49S5.672 0 8.148 0h4.588v8.981zm-4.587-7.51c-1.665 0-3.019 1.355-3.019 3.019s1.354 3.02 3.019 3.02h3.117V1.471H8.148zm4.587 15.019H8.148c-2.476 0-4.49-2.014-4.49-4.49s2.014-4.49 4.49-4.49h4.588v8.98zM8.148 8.981c-1.665 0-3.019 1.355-3.019 3.019s1.355 3.019 3.019 3.019h3.117V8.981H8.148zM8.172 24c-2.489 0-4.515-2.014-4.515-4.49s2.014-4.49 4.49-4.49h4.588v4.441c0 2.503-2.047 4.539-4.563 4.539zm-.024-7.51a3.023 3.023 0 0 0-3.019 3.019c0 1.665 1.365 3.019 3.044 3.019 1.705 0 3.093-1.376 3.093-3.068v-2.97H8.148zm7.704 0h-.098c-2.476 0-4.49-2.014-4.49-4.49s2.014-4.49 4.49-4.49h.098c2.476 0 4.49 2.014 4.49 4.49s-2.014 4.49-4.49 4.49zm-.097-7.509c-1.665 0-3.019 1.355-3.019 3.019s1.355 3.019 3.019 3.019h.098c1.665 0 3.019-1.355 3.019-3.019s-1.355-3.019-3.019-3.019h-.098z"
     id="path4" />
  <path
     style="fill:#ffffff;stroke-width:0.328258;stroke-linecap:round"
     d="M 7.8166466,22.492879 C 7.3675791,22.43796 6.8858425,22.259026 6.4849216,21.998227 6.2501678,21.84552 5.809576,21.407564 5.659526,21.177769 5.4166164,20.805764 5.2474199,20.377601 5.1812623,19.967493 5.1320803,19.662618 5.1591603,19.070735 5.2354173,18.783823 5.4976502,17.797187 6.2265479,17.000671 7.1652598,16.674955 7.6082746,16.521237 7.594371,16.522223 9.4904427,16.509996 l 1.7751223,-0.01145 -0.01163,1.673525 c -0.01283,1.846333 -0.01218,1.83895 -0.207628,2.360866 -0.235224,0.628129 -0.737185,1.21518 -1.3422833,1.569818 -0.2333025,0.136734 -0.6336037,0.289261 -0.9030612,0.344092 -0.2886693,0.05874 -0.7167092,0.07876 -0.9843184,0.04603 z"
     id="path308" />
  <path
     style="fill:#ffffff;stroke-width:0.328258;stroke-linecap:round"
     d="M 7.6031498,14.951396 C 6.9881542,14.829198 6.4794547,14.558012 6.033585,14.114667 5.7590652,13.841701 5.5985781,13.612628 5.4266996,13.248423 5.2169315,12.803931 5.1695439,12.573876 5.1695439,12 c 0,-0.421872 0.00946,-0.527303 0.066259,-0.738239 C 5.5437753,10.117976 6.4597045,9.2677315 7.6212409,9.0473918 7.8107845,9.011436 8.1564588,9.0036188 9.5568773,9.0036188 H 11.261761 V 12 14.996381 l -1.7297948,-0.0027 c -1.3367073,-0.0021 -1.7750216,-0.01171 -1.9288164,-0.04227 z"
     id="path310" />
  <path
     style="fill:#ffffff;stroke-width:0.328258;stroke-linecap:round"
     d="M 15.343788,14.97711 C 14.253004,14.805516 13.329015,14.065815 12.953673,13.063699 12.813649,12.689852 12.761257,12.400222 12.761257,12 c 0,-1.382025 0.917715,-2.5560219 2.27855,-2.9148585 0.328205,-0.086544 0.976857,-0.1057349 1.330118,-0.039353 1.168469,0.2195683 2.083202,1.0660435 2.394665,2.2159725 0.05731,0.21157 0.06665,0.315099 0.06665,0.738239 0,0.42314 -0.0093,0.526669 -0.06665,0.738239 -0.310313,1.145685 -1.22436,1.994042 -2.385831,2.214369 -0.211147,0.04005 -0.841282,0.05497 -1.034971,0.0245 z"
     id="path312" />
  <path
     style="fill:#ffffff;stroke-width:0.328258;stroke-linecap:round"
     d="M 12.738239,4.4889591 V 1.4764777 l 1.585042,2.374e-4 c 1.637239,2.455e-4 1.915326,0.014365 2.308806,0.1172312 0.84755,0.2215712 1.632021,0.9042082 1.979888,1.722873 0.180326,0.4243763 0.220556,0.642702 0.218358,1.1849901 -0.0017,0.4081181 -0.01248,0.5301036 -0.0634,0.7143671 -0.276344,0.9999804 -0.9941,1.7833682 -1.93219,2.1088687 -0.442976,0.1537045 -0.429283,0.1527324 -2.323281,0.1649535 l -1.773221,0.011442 z"
     id="path314" />
  <path
     style="fill:#ffffff;stroke-width:0.328258;stroke-linecap:round"
     d="M 7.7466874,7.4661487 C 6.2479684,7.2475678 5.1539573,5.9906469 5.1539573,4.4873341 5.1539573,3.6966325 5.4359192,2.9988488 5.9865445,2.426894 6.4937224,1.9000694 7.101375,1.5943793 7.8158871,1.5066117 7.9588116,1.4890555 8.7291558,1.4764777 9.6614843,1.4764777 H 11.261761 V 4.4873341 7.4981906 L 9.5898673,7.4946604 C 8.6703257,7.4927178 7.8408948,7.4798883 7.7466874,7.4661487 Z"
     id="path316" />
  <path
     style="fill:#ff0000;stroke-width:0.328258;stroke-linecap:round"
     d="M 7.8455971,23.966251 C 7.0566685,23.916228 6.2369831,23.623061 5.5665313,23.151124 5.2389426,22.920531 4.7259616,22.406845 4.4916737,22.074789 4.2794409,21.773992 4.0013083,21.222212 3.8943062,20.889688 3.7328745,20.388017 3.6937776,20.120497 3.6930606,19.512666 3.6923515,18.91161 3.718843,18.715628 3.8684995,18.214778 4.1326271,17.330833 4.7172669,16.499 5.4716526,15.933793 5.5910736,15.84432 5.6917851,15.762903 5.695456,15.752867 5.6991268,15.742831 5.640502,15.693893 5.5651785,15.644116 4.8385815,15.163948 4.1765459,14.258148 3.8848979,13.34515 3.728039,12.854106 3.6927983,12.607338 3.6927983,12 c 0,-0.607338 0.035241,-0.854106 0.1920996,-1.34515 C 4.1765459,9.7418516 4.8385815,8.8360519 5.5651785,8.3558837 5.640502,8.3061067 5.6991268,8.2572084 5.695456,8.247221 5.6917851,8.2372337 5.5845597,8.1504753 5.4571773,8.0544246 4.5727312,7.3875234 3.9503599,6.3801009 3.7453231,5.2834741 3.6641906,4.8495413 3.6713755,4.0312244 3.7599391,3.6188179 3.953095,2.7193657 4.3483932,1.9898792 4.9926414,1.3439786 5.5216017,0.81366172 6.0630275,0.47628232 6.7525752,0.24730872 7.5060067,-0.0028784 7.5879746,-0.00637041 12.361882,0.00833969 c 3.399017,0.01047357 3.984451,0.01840169 4.185555,0.05668194 1.048992,0.19967686 1.859663,0.63437754 2.556834,1.37103537 0.571639,0.6040163 0.952338,1.338003 1.138675,2.1953645 0.09291,0.4274715 0.09177,1.2886853 -0.0023,1.7244289 -0.20381,0.9442938 -0.614096,1.6870489 -1.296108,2.3463909 -0.157262,0.1520349 -0.367355,0.3337311 -0.466872,0.4037691 -0.09952,0.070038 -0.180707,0.1345482 -0.180421,0.1433559 2.89e-4,0.00881 0.06217,0.05674 0.137515,0.1065174 0.226195,0.1494335 0.572724,0.4609164 0.777488,0.6988603 0.525616,0.6107832 0.885031,1.346751 1.042981,2.135691 0.07308,0.365007 0.07308,1.254123 0,1.61913 -0.37028,1.8495 -1.782399,3.250522 -3.623161,3.59469 -0.431641,0.0807 -1.336146,0.07396 -1.74131,-0.01299 -0.73035,-0.156733 -1.378109,-0.461981 -1.935409,-0.912036 -0.111459,-0.09001 -0.211927,-0.163821 -0.223262,-0.164022 -0.01134,-2.03e-4 -0.02502,1.077679 -0.03041,2.395291 -0.0096,2.344834 -0.01115,2.401399 -0.07316,2.666325 -0.199622,0.852807 -0.581441,1.572135 -1.154259,2.174573 -0.95911,1.008702 -2.2284674,1.503639 -3.6286729,1.414858 z m 0.656182,-1.444726 c 1.46136,-0.162951 2.5971709,-1.286839 2.7579849,-2.729034 0.01805,-0.161907 0.03095,-0.912019 0.03095,-1.800368 v -1.522826 l -1.8021716,0.0103 -1.8021713,0.0103 -0.2809884,0.07634 c -0.5430014,0.147517 -0.9703265,0.391488 -1.3790674,0.787345 -0.4021642,0.389488 -0.6736635,0.858852 -0.8189025,1.415708 -0.078495,0.300956 -0.1053428,0.886119 -0.055056,1.199997 0.234893,1.466157 1.4501241,2.519218 2.9766514,2.579425 0.052377,0.0021 0.2201246,-0.01017 0.3727733,-0.02719 z M 11.290712,12 V 8.9746683 H 9.5719466 c -1.889264,0 -1.9964977,0.00761 -2.4577129,0.1745008 C 5.9098165,9.5849784 5.1250067,10.709717 5.1250067,12 c 0,1.306695 0.7862019,2.419487 2.023133,2.863549 0.417191,0.149772 0.5167834,0.156383 2.3983018,0.159185 l 1.7442705,0.0026 z m 5.109539,2.981137 c 1.218865,-0.212553 2.197249,-1.187765 2.43173,-2.423849 0.05608,-0.295642 0.05608,-0.818934 0,-1.114576 -0.234481,-1.236084 -1.212865,-2.2112964 -2.43173,-2.4238487 -0.324063,-0.056512 -0.897219,-0.056714 -1.193968,-4.227e-4 -1.214742,0.2304327 -2.149061,1.1357124 -2.414181,2.3391484 -0.0801,0.363584 -0.08056,0.919396 -0.0011,1.279322 0.266329,1.205816 1.216451,2.127595 2.41767,2.345552 0.28967,0.05256 0.886344,0.0519 1.191543,-0.0013 z M 11.290712,4.4873341 v -3.039807 l -1.6139931,8.11e-5 C 8.677634,1.4476574 7.9634585,1.4598547 7.8021713,1.4796199 7.075887,1.5686243 6.4272574,1.8952954 5.9348613,2.4200593 5.7011257,2.6691595 5.5604932,2.8796048 5.3987766,3.2222666 5.1863069,3.6724696 5.1404724,3.896948 5.1404724,4.4873341 c 0,0.433227 0.00932,0.540936 0.064342,0.7433712 0.14842,0.5460886 0.3785375,0.9557704 0.7600957,1.3532104 0.4801813,0.5001681 1.1148044,0.8268984 1.7721132,0.9123572 0.099523,0.012939 0.9398163,0.025178 1.8673193,0.027197 l 1.6863694,0.00367 z m 5.311745,2.9444358 c 0.349121,-0.094675 0.801737,-0.3111618 1.057374,-0.5057439 0.55519,-0.4225902 0.936131,-0.9844181 1.12353,-1.6570272 0.06896,-0.2474953 0.07667,-0.3243028 0.07707,-0.7671894 C 18.860944,3.9192909 18.808182,3.6581709 18.602022,3.2229626 18.21229,2.4002288 17.546669,1.8268727 16.694628,1.5799611 16.294417,1.4639844 15.997179,1.4475271 14.302709,1.4475271 h -1.593421 v 3.0415878 3.0415877 l 1.802172,-0.010304 1.802171,-0.010304 z"
     id="path318" />
</svg>
