<?xml version="1.0" encoding="UTF-8" standalone="no"?>
<svg
   role="img"
   viewBox="0 0 24 24"
   version="1.1"
   id="svg4087"
   sodipodi:docname="html5.svg"
   inkscape:version="1.1 (c68e22c387, 2021-05-23)"
   xmlns:inkscape="http://www.inkscape.org/namespaces/inkscape"
   xmlns:sodipodi="http://sodipodi.sourceforge.net/DTD/sodipodi-0.dtd"
   xmlns="http://www.w3.org/2000/svg"
   xmlns:svg="http://www.w3.org/2000/svg">
  <defs
     id="defs4091" />
  <sodipodi:namedview
     id="namedview4089"
     pagecolor="#ffffff"
     bordercolor="#000000"
     borderopacity="0.25"
     inkscape:showpageshadow="2"
     inkscape:pageopacity="0.0"
     inkscape:pagecheckerboard="0"
     inkscape:deskcolor="#d1d1d1"
     showgrid="false"
     inkscape:zoom="34.541667"
     inkscape:cx="10.899879"
     inkscape:cy="12"
     inkscape:window-width="1920"
     inkscape:window-height="1057"
     inkscape:window-x="-8"
     inkscape:window-y="-8"
     inkscape:window-maximized="1"
     inkscape:current-layer="svg4087"
     inkscape:pageshadow="2" />
  <title
     id="title4083">HTML5</title>
  <path
     d="M1.5 0h21l-1.91 21.563L11.977 24l-8.564-2.438L1.5 0zm7.031 9.75l-.232-2.718 10.059.003.23-2.622L5.412 4.41l.698 8.01h9.126l-.326 3.426-2.91.804-2.955-.81-.188-2.11H6.248l.33 4.171L12 19.351l5.379-1.443.744-8.157H8.531z"
     id="path4085"
     style="fill:#1f58d0;" />
  <path
     style="fill:#ffffff;stroke-width:0.328258;stroke-linecap:round"
     d="M 9.298611,18.615311 C 7.8287696,18.220561 6.6177925,17.889204 6.6075506,17.878962 6.5973087,17.86872 6.5210493,16.997735 6.4380853,15.943439 6.3551214,14.889143 6.2815211,13.964656 6.2745292,13.889023 l -0.012713,-0.137515 h 1.2921099 1.2921101 l 0.092458,1.046236 c 0.050852,0.57543 0.096079,1.049389 0.1005041,1.053242 0.014534,0.01265 2.9020117,0.799683 2.9473707,0.803353 0.02435,0.002 0.695597,-0.176318 1.491663,-0.396195 l 1.447392,-0.399776 0.154063,-1.654154 c 0.08473,-0.909785 0.160726,-1.683426 0.168872,-1.719203 l 0.01481,-0.06505 -4.570064,-0.0073 -4.5700636,-0.0073 -0.338343,-3.8649509 C 5.5986101,6.4147165 5.4455339,4.6201448 5.444529,4.5524729 L 5.4427021,4.4294331 H 12 18.557298 v 0.086045 c 0,0.047325 -0.0456,0.6022895 -0.101327,1.2332544 -0.05573,0.6309649 -0.101327,1.1784096 -0.101327,1.2165437 v 0.069335 l -5.040078,-0.019097 -5.0400782,-0.019097 0.017921,0.156797 c 0.020625,0.1804519 0.2190505,2.5018801 0.2190505,2.5627243 0,0.034395 0.7115227,0.040394 4.7913147,0.040394 h 4.791315 v 0.07923 c 0,0.1351851 -0.726612,8.0394205 -0.740297,8.0531065 -0.01373,0.01373 -5.343697,1.449794 -5.368267,1.446381 -0.008,-0.0011 -1.217073,-0.324988 -2.686914,-0.719739 z"
     id="path4880" />
</svg>
