<?xml version="1.0" encoding="UTF-8" standalone="no"?>
<svg
   role="img"
   viewBox="0 0 24 24"
   version="1.1"
   id="svg1369"
   sodipodi:docname="javascript.svg"
   inkscape:version="1.1 (c68e22c387, 2021-05-23)"
   xmlns:inkscape="http://www.inkscape.org/namespaces/inkscape"
   xmlns:sodipodi="http://sodipodi.sourceforge.net/DTD/sodipodi-0.dtd"
   xmlns="http://www.w3.org/2000/svg"
   xmlns:svg="http://www.w3.org/2000/svg">
  <defs
     id="defs1373" />
  <sodipodi:namedview
     id="namedview1371"
     pagecolor="#ffffff"
     bordercolor="#000000"
     borderopacity="0.25"
     inkscape:showpageshadow="2"
     inkscape:pageopacity="0.0"
     inkscape:pagecheckerboard="0"
     inkscape:deskcolor="#d1d1d1"
     showgrid="false"
     inkscape:zoom="34.541667"
     inkscape:cx="10.899879"
     inkscape:cy="13.129071"
     inkscape:window-width="1920"
     inkscape:window-height="1057"
     inkscape:window-x="-8"
     inkscape:window-y="-8"
     inkscape:window-maximized="1"
     inkscape:current-layer="svg1369"
     inkscape:pageshadow="2" />
  <title
     id="title1365">JavaScript</title>
  <path
     d="M0 0h24v24H0V0zm22.034 18.276c-.175-1.095-.888-2.015-3.003-2.873-.736-.345-1.554-.585-1.797-1.14-.091-.33-.105-.51-.046-.705.15-.646.915-.84 1.515-.66.39.12.75.42.976.9 1.034-.676 1.034-.676 1.755-1.125-.27-.42-.404-.601-.586-.78-.63-.705-1.469-1.065-2.834-1.034l-.705.089c-.676.165-1.32.525-1.71 1.005-1.14 1.291-.811 3.541.569 4.471 1.365 1.02 3.361 1.244 3.616 2.205.24 1.17-.87 1.545-1.966 1.41-.811-.18-1.26-.586-1.755-1.336l-1.83 1.051c.21.48.45.689.81 1.109 1.74 1.756 6.09 1.666 6.871-1.004.029-.09.24-.705.074-1.65l.046.067zm-8.983-7.245h-2.248c0 1.938-.009 3.864-.009 5.805 0 1.232.063 2.363-.138 2.711-.33.689-1.18.601-1.566.48-.396-.196-.597-.466-.83-.855-.063-.105-.11-.196-.127-.196l-1.825 1.125c.305.63.75 1.172 1.324 1.517.855.51 2.004.675 3.207.405.783-.226 1.458-.691 1.811-1.411.51-.93.402-2.07.397-3.346.012-2.054 0-4.109 0-6.179l.004-.056z"
     id="path1367"
     style="fill:#1f58d0;" />
  <path
     style="fill:#ffffff;stroke-width:0.328258;stroke-linecap:round"
     d="M 9.2641737,22.117713 C 9.1288299,22.103835 8.8943305,22.064124 8.7430639,22.029467 7.8783619,21.831353 7.2349053,21.430782 6.7531592,20.790691 6.5795746,20.560051 6.3346293,20.151652 6.3472591,20.11393 c 0.00406,-0.01213 0.406986,-0.268109 0.8953871,-0.568838 l 0.8880021,-0.54678 0.190976,0.297817 c 0.2086753,0.325418 0.4806348,0.604212 0.6867173,0.703975 0.3477064,0.168322 0.9079081,0.160572 1.2559274,-0.01737 0.150219,-0.07681 0.348255,-0.291756 0.417384,-0.453028 0.115819,-0.270197 0.131133,-0.511473 0.122357,-1.927772 -0.0046,-0.74041 4.05e-4,-2.521954 0.01109,-3.958987 l 0.01944,-2.612786 h 1.094595 1.094594 l 0.0098,3.785283 c 0.0054,2.081906 -4.08e-4,3.972982 -0.01285,4.202391 -0.07387,1.361909 -0.590604,2.253469 -1.599664,2.759995 -0.554543,0.278369 -1.4226321,0.415169 -2.1568153,0.339887 z"
     id="path1630" />
  <path
     style="fill:#ffffff;stroke-width:0.328258;stroke-linecap:round"
     d="m 17.717732,22.001436 c -1.067253,-0.129805 -2.031956,-0.536686 -2.601097,-1.09706 -0.353992,-0.348537 -0.844017,-0.998812 -0.844017,-1.120029 0,-0.01849 0.400603,-0.263589 0.890229,-0.544667 0.853965,-0.490232 0.891998,-0.508786 0.933655,-0.455469 0.02388,0.03057 0.101371,0.136297 0.172193,0.23495 0.435755,0.606993 1.055973,0.987583 1.695063,1.040157 1.179641,0.09704 1.916615,-0.38306 1.859827,-1.211586 -0.04081,-0.595387 -0.366017,-0.865387 -1.743971,-1.447909 -1.709208,-0.722558 -2.367901,-1.200833 -2.791758,-2.027085 -0.250179,-0.48769 -0.354581,-0.931522 -0.354001,-1.504928 8.4e-4,-0.830033 0.268034,-1.490535 0.834833,-2.063701 0.463678,-0.468887 1.119323,-0.784426 1.826373,-0.878969 0.453464,-0.06064 1.246142,-0.03944 1.599149,0.04277 0.661468,0.154035 1.073223,0.379633 1.537028,0.842129 0.259227,0.258495 0.663213,0.772256 0.663213,0.843427 0,0.01161 -0.15959,0.122127 -0.354644,0.245596 -0.195054,0.12347 -0.571668,0.36578 -0.836918,0.538469 -0.265251,0.172688 -0.493259,0.313978 -0.506685,0.313978 -0.01343,0 -0.05688,-0.06188 -0.09657,-0.137515 -0.111387,-0.212268 -0.447999,-0.5334 -0.667708,-0.637 -0.441897,-0.208369 -0.935272,-0.204716 -1.32949,0.0098 -0.178692,0.09726 -0.27314,0.202559 -0.374253,0.417264 -0.06276,0.133267 -0.0748,0.199351 -0.07387,0.405308 0.0013,0.291996 0.03822,0.432362 0.163237,0.6211 0.180238,0.27211 0.481209,0.449552 1.558199,0.918662 1.220165,0.531474 1.777447,0.857427 2.268394,1.326774 0.40537,0.387536 0.655344,0.778096 0.787544,1.230462 0.0565,0.193341 0.05993,0.226368 0.08714,0.839069 0.0152,0.342346 0.0091,0.49247 -0.02868,0.709289 -0.23589,1.352475 -1.200154,2.207869 -2.82515,2.506174 -0.293222,0.05383 -1.142316,0.07759 -1.447267,0.0405 z"
     id="path1632" />
</svg>
