<?xml version="1.0" encoding="UTF-8" standalone="no"?>
<svg
   role="img"
   viewBox="0 0 24 24"
   version="1.1"
   id="svg4595"
   sodipodi:docname="jest.svg"
   inkscape:version="1.2.2 (732a01da63, 2022-12-09)"
   xmlns:inkscape="http://www.inkscape.org/namespaces/inkscape"
   xmlns:sodipodi="http://sodipodi.sourceforge.net/DTD/sodipodi-0.dtd"
   xmlns="http://www.w3.org/2000/svg"
   xmlns:svg="http://www.w3.org/2000/svg">
  <defs
     id="defs4599" />
  <sodipodi:namedview
     id="namedview4597"
     pagecolor="#ffffff"
     bordercolor="#000000"
     borderopacity="0.25"
     inkscape:showpageshadow="2"
     inkscape:pageopacity="0.0"
     inkscape:pagecheckerboard="0"
     inkscape:deskcolor="#d1d1d1"
     showgrid="false"
     inkscape:zoom="34.541667"
     inkscape:cx="10.885404"
     inkscape:cy="12.014475"
     inkscape:window-width="1920"
     inkscape:window-height="1009"
     inkscape:window-x="-8"
     inkscape:window-y="-8"
     inkscape:window-maximized="1"
     inkscape:current-layer="svg4595" />
  <title
     id="title4591">Jest</title>
  <path
     d="M22.251 11.82a3.117 3.117 0 0 0-2.328-3.01L22.911 0H8.104L11.1 8.838a3.116 3.116 0 0 0-2.244 2.988c0 1.043.52 1.967 1.313 2.536a8.279 8.279 0 0 1-1.084 1.244 8.14 8.14 0 0 1-2.55 1.647c-.834-.563-1.195-1.556-.869-2.446a3.11 3.11 0 0 0-.91-6.08 3.117 3.117 0 0 0-3.113 3.113c0 .848.347 1.626.903 2.182-.048.097-.097.195-.146.299-.465.959-.993 2.043-1.195 3.259-.403 2.432.257 4.384 1.849 5.489A5.093 5.093 0 0 0 5.999 24c1.827 0 3.682-.917 5.475-1.807 1.279-.632 2.599-1.292 3.898-1.612.48-.118.98-.187 1.508-.264 1.07-.153 2.175-.312 3.168-.89a4.482 4.482 0 0 0 2.182-3.091c.174-.994 0-1.994-.444-2.87.298-.48.465-1.042.465-1.647zm-1.355 0c0 .965-.785 1.75-1.75 1.75a1.753 1.753 0 0 1-1.085-3.126l.007-.007c.056-.042.118-.084.18-.125 0 0 .008 0 .008-.007.028-.014.055-.035.083-.05.007 0 .014-.006.021-.006.028-.014.063-.028.097-.042.035-.014.07-.027.098-.041.007 0 .013-.007.02-.007.028-.007.056-.021.084-.028.007 0 .02-.007.028-.007.034-.007.062-.014.097-.02h.007l.104-.022c.007 0 .02 0 .028-.007.028 0 .055-.007.083-.007h.035c.035 0 .07-.007.111-.007h.09c.028 0 .05 0 .077.007h.014c.055.007.111.014.167.028a1.766 1.766 0 0 1 1.396 1.723zM10.043 1.39h10.93l-2.509 7.4c-.104.02-.208.055-.312.09l-2.64-5.385-2.648 5.35c-.104-.034-.216-.055-.327-.076l-2.494-7.38zm4.968 9.825a3.083 3.083 0 0 0-.938-1.668l1.438-2.904 1.452 2.967c-.43.43-.743.98-.868 1.605H15.01zm-3.481-1.098c.034-.007.062-.014.097-.02h.02c.029-.008.056-.008.084-.015h.028c.028 0 .049-.007.076-.007h.271c.028 0 .049.007.07.007.014 0 .02 0 .035.007.027.007.048.007.076.014.007 0 .014 0 .028.007l.097.02h.007c.028.008.056.015.083.029.007 0 .014.007.028.007.021.007.049.014.07.027.007 0 .014.007.02.007.028.014.056.021.084.035h.007a.374.374 0 0 1 .09.049h.007c.028.014.056.034.084.048.007 0 .007.007.013.007.028.014.05.035.077.049l.007.007c.083.062.16.132.236.201l.007.007a1.747 1.747 0 0 1 .48 1.209 1.752 1.752 0 0 1-3.502 0 1.742 1.742 0 0 1 1.32-1.695zm-6.838-.049c.966 0 1.751.786 1.751 1.751s-.785 1.751-1.75 1.751-1.752-.785-1.752-1.75.786-1.752 1.751-1.752zm16.163 6.025a3.07 3.07 0 0 1-1.508 2.133c-.758.438-1.689.577-2.669.716a17.29 17.29 0 0 0-1.64.291c-1.445.355-2.834 1.05-4.182 1.717-1.724.854-3.35 1.66-4.857 1.66a3.645 3.645 0 0 1-2.154-.688c-1.529-1.056-1.453-3.036-1.272-4.12.167-1.015.632-1.966 1.077-2.877.028-.055.049-.104.077-.16.152.056.312.098.479.126-.264 1.473.486 2.994 1.946 3.745l.264.139.284-.104c1.216-.431 2.342-1.133 3.336-2.071a9.334 9.334 0 0 0 1.445-1.716c.16.027.32.034.48.034a3.117 3.117 0 0 0 3.008-2.327h1.167a3.109 3.109 0 0 0 3.01 2.327c.576 0 1.11-.16 1.57-.43.18.52.236 1.063.139 1.605z"
     id="path4593"
     style="fill:#0000ff" />
  <path
     style="fill:#ffffff;stroke-width:0.328258;stroke-linecap:round"
     d="M 5.6743064,22.57542 C 4.9109083,22.523991 4.1143702,22.176465 3.5456716,21.646706 3.2308712,21.35346 3.0693126,21.134806 2.8784241,20.743651 2.6068605,20.187182 2.5055562,19.682423 2.5064453,18.890229 c 0.00135,-1.205696 0.2225351,-2.008681 0.9994212,-3.628325 0.1865751,-0.38897 0.2358986,-0.470055 0.2784128,-0.457694 0.028417,0.0083 0.1102925,0.0296 0.1819451,0.04742 0.071653,0.01782 0.1507235,0.03827 0.1757132,0.04544 0.037532,0.01078 0.041677,0.03943 0.023826,0.164743 -0.08556,0.600632 0.043645,1.346008 0.3356682,1.936458 0.3510107,0.709718 0.848202,1.210507 1.6327634,1.644579 l 0.2717104,0.150328 0.2638747,-0.09389 c 1.3421833,-0.477563 2.5570564,-1.258597 3.6230307,-2.329222 0.360306,-0.361878 0.824278,-0.917834 1.055802,-1.26512 l 0.130277,-0.195416 0.260555,0.01739 c 1.085136,0.07244 2.191934,-0.462938 2.795999,-1.352464 0.143831,-0.211799 0.356102,-0.651353 0.407327,-0.843458 l 0.03667,-0.137515 h 0.570952 0.570952 l 0.04783,0.166466 c 0.132969,0.462743 0.524196,1.05903 0.916253,1.396502 0.594068,0.511357 1.262406,0.7601 2.050878,0.763297 0.51256,0.0021 0.957795,-0.09635 1.364516,-0.301666 0.09252,-0.0467 0.180011,-0.08491 0.194433,-0.08491 0.01442,0 0.0557,0.113993 0.09174,0.253318 0.0963,0.372361 0.112093,0.995334 0.03467,1.367913 -0.212381,1.022009 -0.879778,1.824518 -1.869711,2.248227 -0.504445,0.215911 -1.063713,0.345745 -2.218539,0.515035 -2.214476,0.324626 -2.910871,0.562179 -5.819059,1.984984 -0.708565,0.346659 -1.438119,0.697873 -1.6212312,0.780474 -1.573083,0.709614 -2.5939831,0.961338 -3.6188184,0.892297 z"
     id="path4842" />
  <path
     style="fill:#ffffff;stroke-width:0.328258;stroke-linecap:round"
     d="m 11.594692,13.447949 c -0.569719,-0.12595 -1.073008,-0.563414 -1.259882,-1.095104 -0.109131,-0.310498 -0.131433,-0.562482 -0.07526,-0.850349 0.07315,-0.374861 0.214157,-0.64126 0.480298,-0.907401 0.353603,-0.353603 0.728149,-0.504431 1.245677,-0.501628 0.468579,0.0025 0.854649,0.167651 1.204601,0.515179 0.305903,0.303783 0.465386,0.654576 0.49436,1.087373 0.05363,0.801096 -0.554707,1.581041 -1.36603,1.751381 -0.246032,0.05166 -0.491748,0.05184 -0.723764,5.49e-4 z"
     id="path4844" />
  <path
     style="fill:#ffffff;stroke-width:0.328258;stroke-linecap:round"
     d="m 18.731001,13.505172 c -0.603602,-0.164497 -1.101559,-0.657314 -1.260297,-1.247286 -0.06904,-0.256606 -0.06161,-0.674406 0.01642,-0.923748 0.08059,-0.257509 0.135813,-0.365079 0.297611,-0.579758 0.384828,-0.510601 1.093344,-0.7750576 1.709327,-0.638014 0.657562,0.146293 1.171784,0.652788 1.339037,1.318915 0.06343,0.25263 0.04182,0.697069 -0.04608,0.947526 -0.171869,0.489748 -0.580169,0.896393 -1.075157,1.070801 -0.268979,0.09477 -0.73284,0.119159 -0.980869,0.05156 z"
     id="path4846" />
  <path
     style="fill:#ffffff;stroke-width:0.328258;stroke-linecap:round"
     d="m 14.996526,11.08082 c -0.0831,-0.329445 -0.268853,-0.749841 -0.444505,-1.006031 -0.04913,-0.07165 -0.170819,-0.2237748 -0.270426,-0.3380495 l -0.181104,-0.2077717 0.705776,-1.4242222 0.705776,-1.4242223 0.316013,0.6476756 c 0.173807,0.3562216 0.496008,1.0150556 0.716001,1.4640755 l 0.399989,0.8163998 -0.138039,0.1534433 c -0.17798,0.1978428 -0.32865,0.4208285 -0.455789,0.6745535 -0.109347,0.218218 -0.253716,0.62369 -0.253716,0.712582 0,0.05154 -0.03005,0.05461 -0.534469,0.05461 h -0.53447 z"
     id="path4848" />
  <path
     style="fill:#ffffff;stroke-width:0.328258;stroke-linecap:round"
     d="M 16.852222,6.1893661 C 16.131875,4.7198348 15.532636,3.5073919 15.520581,3.4950486 15.508525,3.4827053 15.301824,3.8735376 15.061244,4.3635648 14.820665,4.8535921 14.226407,6.0572972 13.740671,7.0384652 L 12.857516,8.8224069 12.703788,8.7879738 12.55006,8.7535406 11.309442,5.0842165 c -0.682341,-2.0181283 -1.2349,-3.6750432 -1.22791,-3.6820331 0.007,-0.00699 2.455639,-0.00942 5.441442,-0.0054 l 5.428734,0.00731 -1.247868,3.6842916 -1.247869,3.6842915 -0.110375,0.030219 c -0.06071,0.016621 -0.126862,0.036546 -0.147014,0.044278 -0.0245,0.0094 -0.470339,-0.8707058 -1.34636,-2.6578156 z"
     id="path4850" />
  <path
     style="fill:#ffffff;stroke-width:0.328258;stroke-linecap:round"
     d="M 4.2909621,13.506896 C 3.6605868,13.354261 3.1290038,12.802271 2.9931182,12.159228 2.8097245,11.291366 3.3576647,10.40674 4.2412545,10.144165 c 0.2332401,-0.06931 0.6642268,-0.06931 0.8974669,0 0.4168795,0.123884 0.7578412,0.372066 0.9918757,0.721977 0.2111189,0.315649 0.2824988,0.564489 0.2795739,0.97463 -0.00265,0.371528 -0.058852,0.572818 -0.2472611,0.885572 -0.2143816,0.355869 -0.6647678,0.682304 -1.0747487,0.778968 -0.2184021,0.05149 -0.5880402,0.05223 -0.7971991,0.0016 z"
     id="path4852" />
</svg>
