<?xml version="1.0" encoding="UTF-8" standalone="no"?>
<svg
   role="img"
   viewBox="0 0 24 24"
   version="1.1"
   id="svg139"
   sodipodi:docname="postgresql.svg"
   inkscape:version="1.1 (c68e22c387, 2021-05-23)"
   xmlns:inkscape="http://www.inkscape.org/namespaces/inkscape"
   xmlns:sodipodi="http://sodipodi.sourceforge.net/DTD/sodipodi-0.dtd"
   xmlns="http://www.w3.org/2000/svg"
   xmlns:svg="http://www.w3.org/2000/svg">
  <defs
     id="defs143" />
  <sodipodi:namedview
     id="namedview141"
     pagecolor="#ffffff"
     bordercolor="#000000"
     borderopacity="0.25"
     inkscape:showpageshadow="2"
     inkscape:pageopacity="0.0"
     inkscape:pagecheckerboard="0"
     inkscape:deskcolor="#d1d1d1"
     showgrid="false"
     inkscape:zoom="34.541667"
     inkscape:cx="10.885404"
     inkscape:cy="12"
     inkscape:window-width="1920"
     inkscape:window-height="1057"
     inkscape:window-x="-8"
     inkscape:window-y="-8"
     inkscape:window-maximized="1"
     inkscape:current-layer="svg139"
     inkscape:pageshadow="2" />
  <title
     id="title135">PostgreSQL</title>
  <path
     d="M23.5594 14.7228a.5269.5269 0 0 0-.0563-.1191c-.139-.2632-.4768-.3418-1.0074-.2321-1.6533.3411-2.2935.1312-2.5256-.0191 1.342-2.0482 2.445-4.522 3.0411-6.8297.2714-1.0507.7982-3.5237.1222-4.7316a1.5641 1.5641 0 0 0-.1509-.235C21.6931.9086 19.8007.0248 17.5099.0005c-1.4947-.0158-2.7705.3461-3.1161.4794a9.449 9.449 0 0 0-.5159-.0816 8.044 8.044 0 0 0-1.3114-.1278c-1.1822-.0184-2.2038.2642-3.0498.8406-.8573-.3211-4.7888-1.645-7.2219.0788C.9359 2.1526.3086 3.8733.4302 6.3043c.0409.818.5069 3.334 1.2423 5.7436.4598 1.5065.9387 2.7019 1.4334 3.582.553.9942 1.1259 1.5933 1.7143 1.7895.4474.1491 1.1327.1441 1.8581-.7279.8012-.9635 1.5903-1.8258 1.9446-2.2069.4351.2355.9064.3625 1.39.3772a.0569.0569 0 0 0 .0004.0041 11.0312 11.0312 0 0 0-.2472.3054c-.3389.4302-.4094.5197-1.5002.7443-.3102.064-1.1344.2339-1.1464.8115-.0025.1224.0329.2309.0919.3268.2269.4231.9216.6097 1.015.6331 1.3345.3335 2.5044.092 3.3714-.6787-.017 2.231.0775 4.4174.3454 5.0874.2212.5529.7618 1.9045 2.4692 1.9043.2505 0 .5263-.0291.8296-.0941 1.7819-.3821 2.5557-1.1696 2.855-2.9059.1503-.8707.4016-2.8753.5388-4.1012.0169-.0703.0357-.1207.057-.1362.0007-.0005.0697-.0471.4272.0307a.3673.3673 0 0 0 .0443.0068l.2539.0223.0149.001c.8468.0384 1.9114-.1426 2.5312-.4308.6438-.2988 1.8057-1.0323 1.5951-1.6698zM2.371 11.8765c-.7435-2.4358-1.1779-4.8851-1.2123-5.5719-.1086-2.1714.4171-3.6829 1.5623-4.4927 1.8367-1.2986 4.8398-.5408 6.108-.13-.0032.0032-.0066.0061-.0098.0094-2.0238 2.044-1.9758 5.536-1.9708 5.7495-.0002.0823.0066.1989.0162.3593.0348.5873.0996 1.6804-.0735 2.9184-.1609 1.1504.1937 2.2764.9728 3.0892.0806.0841.1648.1631.2518.2374-.3468.3714-1.1004 1.1926-1.9025 2.1576-.5677.6825-.9597.5517-1.0886.5087-.3919-.1307-.813-.5871-1.2381-1.3223-.4796-.839-.9635-2.0317-1.4155-3.5126zm6.0072 5.0871c-.1711-.0428-.3271-.1132-.4322-.1772.0889-.0394.2374-.0902.4833-.1409 1.2833-.2641 1.4815-.4506 1.9143-1.0002.0992-.126.2116-.2687.3673-.4426a.3549.3549 0 0 0 .0737-.1298c.1708-.1513.2724-.1099.4369-.0417.156.0646.3078.26.3695.4752.0291.1016.0619.2945-.0452.4444-.9043 1.2658-2.2216 1.2494-3.1676 1.0128zm2.094-3.988-.0525.141c-.133.3566-.2567.6881-.3334 1.003-.6674-.0021-1.3168-.2872-1.8105-.8024-.6279-.6551-.9131-1.5664-.7825-2.5004.1828-1.3079.1153-2.4468.079-3.0586-.005-.0857-.0095-.1607-.0122-.2199.2957-.2621 1.6659-.9962 2.6429-.7724.4459.1022.7176.4057.8305.928.5846 2.7038.0774 3.8307-.3302 4.7363-.084.1866-.1633.3629-.2311.5454zm7.3637 4.5725c-.0169.1768-.0358.376-.0618.5959l-.146.4383a.3547.3547 0 0 0-.0182.1077c-.0059.4747-.054.6489-.115.8693-.0634.2292-.1353.4891-.1794 1.0575-.11 1.4143-.8782 2.2267-2.4172 2.5565-1.5155.3251-1.7843-.4968-2.0212-1.2217a6.5824 6.5824 0 0 0-.0769-.2266c-.2154-.5858-.1911-1.4119-.1574-2.5551.0165-.5612-.0249-1.9013-.3302-2.6462.0044-.2932.0106-.5909.019-.8918a.3529.3529 0 0 0-.0153-.1126 1.4927 1.4927 0 0 0-.0439-.208c-.1226-.4283-.4213-.7866-.7797-.9351-.1424-.059-.4038-.1672-.7178-.0869.067-.276.1831-.5875.309-.9249l.0529-.142c.0595-.16.134-.3257.213-.5012.4265-.9476 1.0106-2.2453.3766-5.1772-.2374-1.0981-1.0304-1.6343-2.2324-1.5098-.7207.0746-1.3799.3654-1.7088.5321a5.6716 5.6716 0 0 0-.1958.1041c.0918-1.1064.4386-3.1741 1.7357-4.4823a4.0306 4.0306 0 0 1 .3033-.276.3532.3532 0 0 0 .1447-.0644c.7524-.5706 1.6945-.8506 2.802-.8325.4091.0067.8017.0339 1.1742.081 1.939.3544 3.2439 1.4468 4.0359 2.3827.8143.9623 1.2552 1.9315 1.4312 2.4543-1.3232-.1346-2.2234.1268-2.6797.779-.9926 1.4189.543 4.1729 1.2811 5.4964.1353.2426.2522.4522.2889.5413.2403.5825.5515.9713.7787 1.2552.0696.087.1372.1714.1885.245-.4008.1155-1.1208.3825-1.0552 1.717-.0123.1563-.0423.4469-.0834.8148-.0461.2077-.0702.4603-.0994.7662zm.8905-1.6211c-.0405-.8316.2691-.9185.5967-1.0105a2.8566 2.8566 0 0 0 .135-.0406 1.202 1.202 0 0 0 .1342.103c.5703.3765 1.5823.4213 3.0068.1344-.2016.1769-.5189.3994-.9533.6011-.4098.1903-1.0957.333-1.7473.3636-.7197.0336-1.0859-.0807-1.1721-.151zm.5695-9.2712c-.0059.3508-.0542.6692-.1054 1.0017-.055.3576-.112.7274-.1264 1.1762-.0142.4368.0404.8909.0932 1.3301.1066.887.216 1.8003-.2075 2.7014a3.5272 3.5272 0 0 1-.1876-.3856c-.0527-.1276-.1669-.3326-.3251-.6162-.6156-1.1041-2.0574-3.6896-1.3193-4.7446.3795-.5427 1.3408-.5661 2.1781-.463zm.2284 7.0137a12.3762 12.3762 0 0 0-.0853-.1074l-.0355-.0444c.7262-1.1995.5842-2.3862.4578-3.4385-.0519-.4318-.1009-.8396-.0885-1.2226.0129-.4061.0666-.7543.1185-1.0911.0639-.415.1288-.8443.1109-1.3505.0134-.0531.0188-.1158.0118-.1902-.0457-.4855-.5999-1.938-1.7294-3.253-.6076-.7073-1.4896-1.4972-2.6889-2.0395.5251-.1066 1.2328-.2035 2.0244-.1859 2.0515.0456 3.6746.8135 4.8242 2.2824a.908.908 0 0 1 .0667.1002c.7231 1.3556-.2762 6.2751-2.9867 10.5405zm-8.8166-6.1162c-.025.1794-.3089.4225-.6211.4225a.5821.5821 0 0 1-.0809-.0056c-.1873-.026-.3765-.144-.5059-.3156-.0458-.0605-.1203-.178-.1055-.2844.0055-.0401.0261-.0985.0925-.1488.1182-.0894.3518-.1226.6096-.0867.3163.0441.6426.1938.6113.4186zm7.9305-.4114c.0111.0792-.049.201-.1531.3102-.0683.0717-.212.1961-.4079.2232a.5456.5456 0 0 1-.075.0052c-.2935 0-.5414-.2344-.5607-.3717-.024-.1765.2641-.3106.5611-.352.297-.0414.6111.0088.6356.1851z"
     id="path137"
     style="fill:#E41884;stroke:#ffffff;stroke-width:2;stroke-miterlimit:4;stroke-dasharray:none;paint-order:stroke fill markers" />
  <path
     style="fill:#ffffff;stroke-width:0.328258;stroke-linecap:round"
     d="M 4.9237398,16.645361 C 4.5670665,16.476628 4.1151312,15.945279 3.7191166,15.229063 2.822739,13.607911 1.8062437,10.281286 1.3170362,7.3679131 1.1774337,6.5365398 1.1470529,6.1585077 1.1681317,5.5150784 1.2341218,3.5007307 1.8874298,2.2136015 3.1700844,1.5708869 3.7879819,1.2612698 4.565399,1.1000816 5.4404925,1.1001448 6.2844981,1.1002056 7.4312164,1.283597 8.433512,1.5788096 L 8.8042975,1.6880195 8.6906938,1.8066153 c -0.9012839,0.94089 -1.5266611,2.4609825 -1.7758083,4.3164245 -0.05918,0.4407263 -0.064829,0.5783852 -0.054056,1.3172497 0.024685,1.6929302 0.013895,2.3890836 -0.045094,2.9095295 -0.071929,0.634606 -0.073591,1.329287 -0.00396,1.65573 0.1507166,0.706608 0.4699863,1.318018 0.9485518,1.816503 l 0.22416,0.233491 -0.1635332,0.174356 C 7.5240275,14.546474 6.737179,15.437553 6.3470449,15.899048 5.9054614,16.421402 5.7844334,16.534581 5.544029,16.649984 5.3137019,16.76055 5.1648837,16.759441 4.9237398,16.645361 Z"
     id="path563" />
  <path
     style="fill:#ffffff;stroke-width:0.328258;stroke-linecap:round"
     d="m 13.852835,23.179527 c -0.319448,-0.106215 -0.556783,-0.312032 -0.718981,-0.623498 -0.117286,-0.225224 -0.340243,-0.857886 -0.404252,-1.147103 -0.07573,-0.34219 -0.08486,-0.545579 -0.09062,-2.01971 -0.0062,-1.580488 -0.02731,-1.844983 -0.198301,-2.482099 -0.08181,-0.304821 -0.09085,-0.384263 -0.107101,-0.940893 -0.01564,-0.535973 -0.02542,-0.627315 -0.08253,-0.771411 -0.08742,-0.220556 -0.258912,-0.47927 -0.404335,-0.609963 -0.233334,-0.209699 -0.641742,-0.359784 -0.90912,-0.334093 -0.07648,0.0073 -0.139049,0.01013 -0.139049,0.0062 0,-0.09771 0.330156,-0.978945 0.620359,-1.655832 0.283045,-0.660193 0.417728,-1.084271 0.51271,-1.614379 0.0595,-0.33208 0.06731,-0.46491 0.06636,-1.1290712 -0.0011,-0.7978207 -0.028,-1.0908821 -0.174257,-1.900183 C 11.68669,7.1992609 11.530841,6.8351832 11.205752,6.5138721 10.846623,6.1589171 10.456042,6.0172563 9.8287093,6.0144304 9.4261833,6.0126181 9.1289069,6.0567876 8.7200855,6.1791535 8.4401873,6.2629306 8.0141392,6.4299072 7.7773192,6.548642 L 7.6077143,6.6336773 7.6279786,6.4217842 C 7.6607598,6.0790089 7.7774207,5.4221147 7.8721571,5.0468636 8.1115016,4.098819 8.4636829,3.3104174 8.9314272,2.675556 9.1121541,2.4302584 9.6166968,1.9107358 9.6741947,1.9107358 c 0.019084,0 0.1273574,-0.064055 0.2406075,-0.1423449 0.4438968,-0.3068657 1.0410158,-0.5489423 1.6219888,-0.6575671 0.236798,-0.044274 0.42918,-0.05409 1.056695,-0.053912 0.475803,1.343e-4 0.866151,0.014522 1.027744,0.037882 1.032844,0.1493053 2.162885,0.6482775 3.083233,1.3614089 0.307353,0.238152 0.938681,0.8658412 1.198474,1.1915663 0.337496,0.4231478 0.708765,1.0090301 0.953978,1.5054282 0.129782,0.2627262 0.257467,0.5377433 0.283744,0.6111492 l 0.04778,0.1334649 -0.539935,-0.00185 c -0.587789,-0.00201 -0.879882,0.037917 -1.247533,0.1705361 -0.288871,0.1042014 -0.451019,0.2036986 -0.67258,0.4127085 -0.233947,0.220694 -0.397643,0.5183948 -0.474158,0.8623142 -0.0722,0.32452 -0.04514,1.0097773 0.05706,1.4449685 0.208945,0.8897616 0.588927,1.7843344 1.336951,3.1475184 0.203021,0.36998 0.426147,0.794709 0.495837,0.943841 0.167943,0.359386 0.387954,0.708477 0.669215,1.061838 0.217286,0.272985 0.226882,0.290955 0.168163,0.314911 -0.529402,0.215985 -0.758167,0.44856 -0.900487,0.915487 -0.02973,0.09753 -0.05859,0.34431 -0.0745,0.636912 -0.01428,0.262726 -0.04666,0.627503 -0.07195,0.810615 -0.02529,0.183112 -0.07656,0.606514 -0.113941,0.940892 -0.04826,0.431744 -0.08855,0.666701 -0.138986,0.810616 -0.04847,0.138308 -0.07765,0.302149 -0.0919,0.516011 -0.01309,0.196466 -0.05825,0.464496 -0.121068,0.718518 -0.05788,0.234038 -0.123954,0.615243 -0.156447,0.902565 -0.06892,0.609433 -0.136721,0.88305 -0.302602,1.221169 -0.341507,0.6961 -0.911615,1.108799 -1.905018,1.379037 -0.271305,0.0738 -0.392588,0.09041 -0.730613,0.100052 -0.287394,0.0082 -0.438998,3.56e-4 -0.52111,-0.02694 z"
     id="path565" />
  <path
     style="fill:#ffffff;stroke-width:0.328258;stroke-linecap:round"
     d="M 9.6714698,14.067405 C 8.6155401,13.860276 7.7943331,13.010863 7.5366439,11.859257 7.4806831,11.60917 7.4725603,10.99295 7.5211356,10.68275 7.6112326,10.107395 7.6441833,8.9176667 7.5969573,7.9451081 L 7.577188,7.5379846 7.7412402,7.4290929 C 7.9736543,7.2748253 8.5080962,7.0237198 8.8207644,6.9218827 9.6848529,6.6404461 10.340607,6.6916667 10.701436,7.068781 c 0.204998,0.2142514 0.287399,0.4296052 0.400141,1.0457665 0.154597,0.8449109 0.213627,1.65926 0.162031,2.2352715 -0.06491,0.724636 -0.194354,1.202819 -0.536826,1.983112 -0.223232,0.508614 -0.490531,1.210633 -0.592495,1.556092 l -0.06195,0.209891 -0.1362891,-0.0032 c -0.074959,-0.0017 -0.1940192,-0.0145 -0.2645781,-0.02834 z M 10.433631,7.892335 C 10.61673,7.7850317 10.711899,7.6613525 10.71078,7.5321575 10.709752,7.4135297 10.679862,7.3652621 10.551833,7.2754878 10.353414,7.1363556 9.8440662,7.0692795 9.5993244,7.1500516 9.2768991,7.2564615 9.3251469,7.5848841 9.7053951,7.872075 9.8868216,8.0091013 10.218632,8.0183325 10.433631,7.892335 Z"
     id="path567" />
  <path
     style="fill:#ffffff;stroke-width:0.328258;stroke-linecap:round"
     d="M 18.833706,12.589568 C 18.771999,12.456379 18.584701,12.099879 18.417487,11.797346 17.662177,10.430789 17.243435,9.4842234 17.034315,8.6706876 16.963257,8.39425 16.95233,8.2968438 16.951499,7.9324487 c -8.46e-4,-0.3714537 0.0067,-0.4386048 0.06515,-0.5832693 0.196257,-0.4853755 0.696116,-0.7182413 1.543642,-0.7191248 0.20068,-2.093e-4 0.446653,0.00817 0.546608,0.018615 l 0.181735,0.018995 -0.01928,0.2343222 c -0.0106,0.1288771 -0.06023,0.5079047 -0.11028,0.8422835 -0.118257,0.7900577 -0.127213,1.5654996 -0.02725,2.3594687 0.09378,0.744882 0.122258,1.254538 0.09039,1.61771 -0.02853,0.325059 -0.12808,0.766704 -0.221794,0.983921 L 18.9459,12.831729 Z M 18.273474,7.6267753 C 18.48345,7.5209259 18.64415,7.3150071 18.64415,7.1517962 c 0,-0.2426502 -0.590511,-0.3001774 -1.008079,-0.098206 -0.243399,0.1177283 -0.270108,0.2793618 -0.07636,0.4620926 0.189629,0.1788423 0.487419,0.2251918 0.71376,0.1110929 z"
     id="path569" />
  <path
     style="fill:#ffffff;stroke-width:0.328258;stroke-linecap:round"
     d="m 19.473838,13.582885 c -0.04601,-0.05084 -0.04169,-0.06795 0.07868,-0.311706 0.167312,-0.338801 0.26341,-0.612766 0.341966,-0.974909 0.09149,-0.421772 0.09113,-1.348017 -8.16e-4,-2.091204 -0.13804,-1.1157614 -0.136545,-1.4397122 0.01118,-2.4212902 0.04265,-0.2834116 0.08635,-0.7394553 0.100178,-1.0454032 0.02202,-0.4873888 0.01888,-0.566292 -0.0308,-0.774315 C 19.826087,5.3438247 19.333721,4.3517964 18.813154,3.6247084 18.522101,3.2181869 18.306402,2.9613545 17.935812,2.5800602 17.34303,1.9701555 16.686419,1.4738826 15.985175,1.1057521 l -0.328456,-0.17242888 0.198179,-0.03462 c 0.744021,-0.12997396 1.853794,-0.17092081 2.485271,-0.0916981 1.591914,0.19971538 2.829364,0.82003828 3.818829,1.91434588 0.345722,0.3823538 0.424437,0.531414 0.512157,0.9698432 0.05663,0.2830689 0.0493,1.2514194 -0.01309,1.7290451 -0.211532,1.6192299 -0.766488,3.4783365 -1.596823,5.3493627 -0.33534,0.755635 -1.030414,2.067048 -1.423446,2.68565 -0.110544,0.173988 -0.117267,0.179222 -0.163955,0.127633 z"
     id="path571" />
  <path
     style="fill:#ffffff;stroke-width:0.328258;stroke-linecap:round"
     d="m 8.9250949,17.050975 c -0.3919056,-0.04934 -0.9057945,-0.196759 -0.9057945,-0.259851 0,-0.02339 0.1643617,-0.06859 0.8725564,-0.239954 0.4539883,-0.109853 0.7806743,-0.243468 1.0139487,-0.414707 0.1268945,-0.09315 0.5832765,-0.617085 0.8538335,-0.980219 0.134852,-0.180994 0.245958,-0.204947 0.463091,-0.09983 0.152268,0.07371 0.287318,0.251293 0.347002,0.456285 0.08173,0.28071 0.0044,0.442031 -0.399396,0.833086 -0.488104,0.472714 -1.023758,0.693692 -1.7469343,0.720677 -0.159228,0.0059 -0.383466,-0.001 -0.4983068,-0.01548 z"
     id="path573" />
  <path
     style="fill:#ffffff;stroke-width:0.328258;stroke-linecap:round"
     d="m 19.092883,16.026909 c -0.11146,-0.0217 -0.24019,-0.05687 -0.286067,-0.07816 l -0.08341,-0.03871 0.0169,-0.217989 c 0.03614,-0.466047 0.179747,-0.654756 0.573794,-0.753978 0.121535,-0.0306 0.135981,-0.02714 0.300634,0.07201 0.53781,0.323855 1.372442,0.38531 2.575858,0.189663 0.175151,-0.02848 0.322593,-0.04809 0.327649,-0.04359 0.0051,0.0045 -0.118707,0.09326 -0.27503,0.197237 -0.518378,0.344797 -0.946296,0.510405 -1.630424,0.630987 -0.431733,0.0761 -1.232363,0.0985 -1.519904,0.04253 z"
     id="path575" />
</svg>
