<?xml version="1.0" encoding="UTF-8" standalone="no"?>
<svg
   role="img"
   viewBox="0 0 24 24"
   version="1.1"
   id="svg4341"
   sodipodi:docname="react.svg"
   inkscape:version="1.2.2 (732a01da63, 2022-12-09)"
   xmlns:inkscape="http://www.inkscape.org/namespaces/inkscape"
   xmlns:sodipodi="http://sodipodi.sourceforge.net/DTD/sodipodi-0.dtd"
   xmlns="http://www.w3.org/2000/svg"
   xmlns:svg="http://www.w3.org/2000/svg">
  <defs
     id="defs4345" />
  <sodipodi:namedview
     id="namedview4343"
     pagecolor="#ffffff"
     bordercolor="#000000"
     borderopacity="0.25"
     inkscape:showpageshadow="2"
     inkscape:pageopacity="0.0"
     inkscape:pagecheckerboard="0"
     inkscape:deskcolor="#d1d1d1"
     showgrid="false"
     inkscape:zoom="34.541667"
     inkscape:cx="9.7852834"
     inkscape:cy="12.014475"
     inkscape:window-width="1920"
     inkscape:window-height="1009"
     inkscape:window-x="-8"
     inkscape:window-y="-8"
     inkscape:window-maximized="1"
     inkscape:current-layer="svg4341" />
  <title
     id="title4337">React</title>
  <path
     d="M14.23 12.004a2.236 2.236 0 0 1-2.235 2.236 2.236 2.236 0 0 1-2.236-2.236 2.236 2.236 0 0 1 2.235-2.236 2.236 2.236 0 0 1 2.236 2.236zm2.648-10.69c-1.346 0-3.107.96-4.888 2.622-1.78-1.653-3.542-2.602-4.887-2.602-.41 0-.783.093-1.106.278-1.375.793-1.683 3.264-.973 6.365C1.98 8.917 0 10.42 0 12.004c0 1.59 1.99 3.097 5.043 4.03-.704 3.113-.39 5.588.988 6.38.32.187.69.275 1.102.275 1.345 0 3.107-.96 4.888-2.624 1.78 1.654 3.542 2.603 4.887 2.603.41 0 .783-.09 1.106-.275 1.374-.792 1.683-3.263.973-6.365C22.02 15.096 24 13.59 24 12.004c0-1.59-1.99-3.097-5.043-4.032.704-3.11.39-5.587-.988-6.38-.318-.184-.688-.277-1.092-.278zm-.005 1.09v.006c.225 0 .406.044.558.127.666.382.955 1.835.73 3.704-.054.46-.142.945-.25 1.44-.96-.236-2.006-.417-3.107-.534-.66-.905-1.345-1.727-2.035-2.447 1.592-1.48 3.087-2.292 4.105-2.295zm-9.77.02c1.012 0 2.514.808 4.11 2.28-.686.72-1.37 1.537-2.02 2.442-1.107.117-2.154.298-3.113.538-.112-.49-.195-.964-.254-1.42-.23-1.868.054-3.32.714-3.707.19-.09.4-.127.563-.132zm4.882 3.05c.455.468.91.992 1.36 1.564-.44-.02-.89-.034-1.345-.034-.46 0-.915.01-1.36.034.44-.572.895-1.096 1.345-1.565zM12 8.1c.74 0 1.477.034 2.202.093.406.582.802 1.203 1.183 1.86.372.64.71 1.29 1.018 1.946-.308.655-.646 1.31-1.013 1.95-.38.66-.773 1.288-1.18 1.87-.728.063-1.466.098-2.21.098-.74 0-1.477-.035-2.202-.093-.406-.582-.802-1.204-1.183-1.86-.372-.64-.71-1.29-1.018-1.946.303-.657.646-1.313 1.013-1.954.38-.66.773-1.286 1.18-1.868.728-.064 1.466-.098 2.21-.098zm-3.635.254c-.24.377-.48.763-.704 1.16-.225.39-.435.782-.635 1.174-.265-.656-.49-1.31-.676-1.947.64-.15 1.315-.283 2.015-.386zm7.26 0c.695.103 1.365.23 2.006.387-.18.632-.405 1.282-.66 1.933-.2-.39-.41-.783-.64-1.174-.225-.392-.465-.774-.705-1.146zm3.063.675c.484.15.944.317 1.375.498 1.732.74 2.852 1.708 2.852 2.476-.005.768-1.125 1.74-2.857 2.475-.42.18-.88.342-1.355.493-.28-.958-.646-1.956-1.1-2.98.45-1.017.81-2.01 1.085-2.964zm-13.395.004c.278.96.645 1.957 1.1 2.98-.45 1.017-.812 2.01-1.086 2.964-.484-.15-.944-.318-1.37-.5-1.732-.737-2.852-1.706-2.852-2.474 0-.768 1.12-1.742 2.852-2.476.42-.18.88-.342 1.356-.494zm11.678 4.28c.265.657.49 1.312.676 1.948-.64.157-1.316.29-2.016.39.24-.375.48-.762.705-1.158.225-.39.435-.788.636-1.18zm-9.945.02c.2.392.41.783.64 1.175.23.39.465.772.705 1.143-.695-.102-1.365-.23-2.006-.386.18-.63.406-1.282.66-1.933zM17.92 16.32c.112.493.2.968.254 1.423.23 1.868-.054 3.32-.714 3.708-.147.09-.338.128-.563.128-1.012 0-2.514-.807-4.11-2.28.686-.72 1.37-1.536 2.02-2.44 1.107-.118 2.154-.3 3.113-.54zm-11.83.01c.96.234 2.006.415 3.107.532.66.905 1.345 1.727 2.035 2.446-1.595 1.483-3.092 2.295-4.11 2.295-.22-.005-.406-.05-.553-.132-.666-.38-.955-1.834-.73-3.703.054-.46.142-.944.25-1.438zm4.56.64c.44.02.89.034 1.345.034.46 0 .915-.01 1.36-.034-.44.572-.895 1.095-1.345 1.565-.455-.47-.91-.993-1.36-1.565z"
     id="path4339"
     style="fill:#0000ff" />
  <path
     style="fill:#ffffff;stroke-width:0.328258;stroke-linecap:round"
     d="M 5.9953633,7.2031234 C 5.6214808,5.2773105 5.7090456,3.6736397 6.230741,2.8923947 6.4462739,2.5696317 6.706064,2.4467072 7.1652593,2.4502101 c 0.7320611,0.00558 1.8216147,0.504068 2.9207097,1.3362589 0.335981,0.2543918 0.925337,0.7451658 1.028702,0.8566307 l 0.07004,0.075527 -0.186819,0.195572 C 10.545429,5.3878607 9.9288697,6.12677 9.4594453,6.7579333 9.3165098,6.9501171 9.1949925,7.1123522 9.1894071,7.1184561 9.1838217,7.12456 8.9345474,7.1604636 8.6354642,7.1982421 7.9662605,7.2827721 7.2248256,7.410074 6.6214922,7.5440346 6.3701887,7.5998324 6.1471271,7.6521813 6.1257996,7.6603654 6.0964553,7.671626 6.0647256,7.560398 5.9953633,7.2031234 Z"
     id="path426" />
  <path
     style="fill:#ffffff;stroke-width:0.328258;stroke-linecap:round"
     d="M 6.840711,10.157629 C 6.668787,9.6945424 6.362475,8.7689697 6.3765211,8.755002 6.4157594,8.7159826 8.162904,8.3867751 8.2543461,8.4011709 8.3048554,8.4091226 8.2927655,8.4394992 8.1470785,8.6706875 7.8820746,9.091218 7.5164671,9.7232045 7.2983234,10.13784 6.9972341,10.710133 7.045064,10.708065 6.840711,10.157629 Z"
     id="path428" />
  <path
     style="fill:#ffffff;stroke-width:0.328258;stroke-linecap:round"
     d="m 13.252698,7.0186807 c -0.009,-0.00897 -0.584358,-0.016106 -1.278649,-0.015867 -0.694292,2.389e-4 -1.262348,-0.00615 -1.262348,-0.014195 0,-0.043637 0.732386,-0.9132272 1.061745,-1.2606502 l 0.209857,-0.2213676 0.225478,0.2359249 c 0.406292,0.4251179 1.135218,1.2924556 1.086203,1.2924556 -0.01429,0 -0.03332,-0.00734 -0.04229,-0.016301 z"
     id="path430" />
  <path
     style="fill:#ffffff;stroke-width:0.328258;stroke-linecap:round"
     d="M 16.792528,10.299156 C 16.565667,9.8686662 16.133728,9.1215015 15.896632,8.7494437 15.783641,8.5721347 15.691194,8.4199973 15.691194,8.4113605 c 0,-0.00864 0.03196,-0.015703 0.07101,-0.015703 0.157676,0 1.796738,0.3237226 1.835544,0.3625288 0.01621,0.016209 -0.256731,0.8637428 -0.442423,1.3738117 -0.08875,0.243778 -0.161361,0.447883 -0.161361,0.453567 0,0.0057 -0.01014,0.01033 -0.02253,0.01033 -0.01239,0 -0.0929,-0.133535 -0.178909,-0.296743 z"
     id="path432" />
  <path
     style="fill:#ffffff;stroke-width:0.328258;stroke-linecap:round"
     d="m 15.810454,15.397169 c 0.29235,-0.464561 0.586375,-0.96893 0.824334,-1.414057 0.131937,-0.246803 0.2617,-0.487817 0.288361,-0.535585 l 0.04847,-0.08685 0.113162,0.289506 c 0.11939,0.305438 0.426459,1.199551 0.498585,1.451762 l 0.04261,0.148988 -0.26534,0.06069 c -0.400589,0.09162 -0.804023,0.171765 -1.190886,0.236568 -0.191553,0.03209 -0.384961,0.06559 -0.429794,0.07444 l -0.08152,0.0161 z"
     id="path434" />
  <path
     style="fill:#ffffff;stroke-width:0.328258;stroke-linecap:round"
     d="m 11.656337,18.128403 c -0.35191,-0.389453 -0.871902,-1.001704 -0.914314,-1.076533 -0.02172,-0.03832 0.126576,-0.04343 1.260831,-0.04343 0.706995,0 1.285323,0.0065 1.285175,0.01448 -9.4e-4,0.05047 -1.207168,1.441591 -1.2749,1.47032 -0.01078,0.0046 -0.171342,-0.159601 -0.356792,-0.364837 z"
     id="path436" />
  <path
     style="fill:#ffffff;stroke-width:0.328258;stroke-linecap:round"
     d="M 7.717293,15.529137 C 7.1194497,15.420815 6.4333525,15.272918 6.4071554,15.246721 6.3741273,15.213693 6.9530398,13.476393 7.01908,13.410353 c 0.021327,-0.02133 0.00964,-0.04066 0.2325385,0.384581 0.1895393,0.361594 0.6206307,1.098116 0.9362092,1.599517 0.082679,0.131363 0.1339514,0.237751 0.1139388,0.236418 -0.020013,-0.0013 -0.2830257,-0.04711 -0.5844735,-0.101732 z"
     id="path438" />
  <path
     style="fill:#ffffff;stroke-width:0.328258;stroke-linecap:round"
     d="m 10.537997,15.862532 c -0.214957,-0.01255 -0.468998,-0.03102 -0.5645351,-0.04104 L 9.7997587,15.80328 9.6130541,15.52287 C 8.9479474,14.523953 8.4062954,13.599546 7.9262823,12.644149 L 7.6099194,12.014475 7.9262452,11.384801 C 8.4274449,10.387119 8.9348014,9.5083102 9.5015223,8.6562122 L 9.79997,8.2074788 10.277548,8.1742875 c 1.150085,-0.07993 2.310608,-0.076978 3.629896,0.00923 l 0.286215,0.018703 0.354433,0.5382123 c 0.611119,0.927993 1.144877,1.8533262 1.608855,2.7891432 l 0.226083,0.455998 -0.04531,0.108453 c -0.274965,0.658082 -1.187389,2.277366 -1.841496,3.268111 l -0.289266,0.438138 -0.191535,0.01817 c -0.777534,0.07377 -2.578189,0.09659 -3.477422,0.04408 z m 1.983113,-1.675081 c 0.419267,-0.101031 0.773292,-0.300246 1.063365,-0.598371 0.299538,-0.307853 0.463795,-0.587859 0.579088,-0.987155 0.08473,-0.293444 0.09028,-0.876577 0.01108,-1.164786 -0.288236,-1.048968 -1.227899,-1.7308318 -2.3044,-1.6721819 -0.929463,0.050639 -1.698331,0.6325199 -2.00606,1.5181919 -0.075776,0.218091 -0.090012,0.306569 -0.1015635,0.631253 -0.011382,0.319896 -0.00399,0.415032 0.048377,0.622437 0.2128125,0.842909 0.8646565,1.483467 1.6929045,1.663592 0.271131,0.05896 0.74367,0.05293 1.017209,-0.01298 z"
     id="path440" />
  <path
     style="fill:#ffffff;stroke-width:0.328258;stroke-linecap:round"
     d="M 4.7334137,14.767572 C 3.7997373,14.427928 3.0662582,14.073251 2.4566672,13.666643 1.4135083,12.970837 0.96481477,12.311712 1.1447922,11.739517 1.2898727,11.278269 1.8497782,10.706898 2.6489746,10.204534 2.9977574,9.9852936 3.7336462,9.6218217 4.2052209,9.435869 4.5645866,9.2941628 5.2273867,9.0615198 5.2717418,9.0615198 c 0.010962,0 0.028344,0.035826 0.038627,0.079614 0.086382,0.3678278 0.5761375,1.7237292 0.8873908,2.4567662 l 0.1763838,0.415403 -0.1515647,0.35523 c -0.3023862,0.708718 -0.7031398,1.821883 -0.9121856,2.533759 -0.017392,0.05922 -0.091218,0.04199 -0.5769794,-0.13472 z"
     id="path442" />
  <path
     style="fill:#ffffff;stroke-width:0.328258;stroke-linecap:round"
     d="m 6.9154342,21.569154 c -0.6079583,-0.109555 -0.953302,-0.684933 -1.094845,-1.824125 -0.038944,-0.313438 -0.039273,-1.223656 -5.918e-4,-1.636465 0.053677,-0.57284 0.235492,-1.675294 0.285162,-1.729111 0.010675,-0.01157 0.2275091,0.0241 0.4818535,0.07926 0.5590671,0.121247 1.5119594,0.2825 2.1391864,0.362002 0.3821049,0.04843 0.4675223,0.06798 0.5000601,0.114434 0.3066259,0.43777 1.1708036,1.492554 1.6575086,2.023097 l 0.319331,0.348091 -0.246646,0.224524 c -0.689559,0.627712 -1.5684625,1.250116 -2.2453636,1.590077 -0.699454,0.351286 -1.3845545,0.522295 -1.7956552,0.448214 z"
     id="path444" />
  <path
     style="fill:#ffffff;stroke-width:0.328258;stroke-linecap:round"
     d="m 16.491917,21.521941 c -0.919616,-0.166154 -2.29219,-0.968585 -3.443211,-2.012962 l -0.226199,-0.20524 0.06643,-0.0809 c 0.03654,-0.04449 0.23448,-0.267812 0.439875,-0.49626 0.383159,-0.426164 1.006396,-1.190937 1.305789,-1.602331 0.0927,-0.127382 0.171468,-0.235557 0.175033,-0.240387 0.0036,-0.0048 0.257633,-0.04071 0.564595,-0.07974 0.780197,-0.0992 2.052247,-0.329752 2.447816,-0.443661 l 0.08984,-0.02587 0.09069,0.455682 c 0.170238,0.855348 0.215785,1.298506 0.217315,2.114436 0.001,0.553836 -0.01051,0.810554 -0.04622,1.027745 -0.09299,0.565504 -0.260649,1.016167 -0.477286,1.282966 -0.257657,0.317316 -0.625966,0.411048 -1.204468,0.306526 z"
     id="path446" />
  <path
     style="fill:#ffffff;stroke-width:0.328258;stroke-linecap:round"
     d="m 18.520512,14.337745 c -0.218067,-0.668298 -0.416801,-1.202097 -0.703654,-1.890013 l -0.192025,-0.460503 0.173026,-0.413397 c 0.324768,-0.775946 0.596421,-1.5237 0.805562,-2.2173911 0.0417,-0.1383224 0.08631,-0.2627136 0.09913,-0.2764249 0.02733,-0.029239 0.245637,0.039515 0.882493,0.2779379 1.926431,0.7212081 3.314837,1.8278191 3.314837,2.6420461 0,0.887784 -1.62128,2.090216 -3.80564,2.822474 -0.190328,0.0638 -0.353175,0.116001 -0.361882,0.115994 -0.0087,-6e-6 -0.104037,-0.270332 -0.211845,-0.600723 z"
     id="path448" />
  <path
     style="fill:#ffffff;stroke-width:0.328258;stroke-linecap:round"
     d="M 17.674306,7.6115637 C 17.326626,7.5058702 15.665218,7.2208061 15.062002,7.1633454 14.946828,7.1523743 14.834745,7.1287749 14.81293,7.1109026 14.791116,7.0930303 14.635848,6.8960192 14.467892,6.6731001 14.09641,6.1800521 13.603653,5.5863618 13.142012,5.0756351 L 12.797141,4.6940929 13.107859,4.4218377 c 1.263064,-1.1067141 2.463098,-1.8035859 3.381123,-1.9634532 0.284102,-0.049474 0.688889,-0.021369 0.860154,0.059723 0.417099,0.1974902 0.705061,0.7891179 0.818718,1.682087 0.03962,0.3112451 0.04621,0.5255638 0.03332,1.0830608 -0.01691,0.7316354 -0.05049,1.044988 -0.199354,1.8602909 -0.09051,0.4957349 -0.09173,0.4993786 -0.165924,0.4969085 -0.04111,-0.00137 -0.113824,-0.01437 -0.161593,-0.028891 z"
     id="path450" />
</svg>
