<?xml version="1.0" encoding="UTF-8" standalone="no"?>
<svg
   role="img"
   viewBox="0 0 24 24"
   version="1.1"
   id="svg4214"
   sodipodi:docname="sass.svg"
   inkscape:version="1.1 (c68e22c387, 2021-05-23)"
   xmlns:inkscape="http://www.inkscape.org/namespaces/inkscape"
   xmlns:sodipodi="http://sodipodi.sourceforge.net/DTD/sodipodi-0.dtd"
   xmlns="http://www.w3.org/2000/svg"
   xmlns:svg="http://www.w3.org/2000/svg">
  <defs
     id="defs4218" />
  <sodipodi:namedview
     id="namedview4216"
     pagecolor="#ffffff"
     bordercolor="#000000"
     borderopacity="0.25"
     inkscape:showpageshadow="2"
     inkscape:pageopacity="0.0"
     inkscape:pagecheckerboard="0"
     inkscape:deskcolor="#d1d1d1"
     showgrid="false"
     inkscape:zoom="34.541667"
     inkscape:cx="10.899879"
     inkscape:cy="12"
     inkscape:window-width="1920"
     inkscape:window-height="1057"
     inkscape:window-x="-8"
     inkscape:window-y="-8"
     inkscape:window-maximized="1"
     inkscape:current-layer="svg4214"
     inkscape:pageshadow="2" />
  <title
     id="title4210">Sass</title>
  <path
     d="m 12.090352,0.115383 c 6.627,0 12,5.373 12,12 0,6.627 -5.373,12 -12,12 -6.6269996,0 -11.9999996,-5.373 -11.9999996,-12 0,-6.627 5.373,-12 11.9999996,-12 z m -2.3849996,15.998 c 0.175,0.645 0.156,1.248 -0.024,1.792 l -0.065,0.18 c -0.024,0.061 -0.052,0.12 -0.078,0.176 -0.14,0.29 -0.326,0.56 -0.555,0.81 -0.698,0.759 -1.672,1.047 -2.09,0.805 -0.45,-0.262 -0.226,-1.335 0.584,-2.19 0.871,-0.918 2.12,-1.509 2.12,-1.509 v -0.003 z m 9.9109996,-10.861 c -0.542,-2.133 -4.077,-2.834 -7.422,-1.645 -1.989,0.707 -4.1439996,1.818 -5.6929996,3.267 -1.843,1.721 -2.136,3.221 -2.015,3.848 0.427,2.211 3.457,3.657 4.703,4.73 v 0.006 c -0.367,0.18 -3.056,1.529 -3.686,2.925 -0.675,1.47 0.105,2.521 0.615,2.655 1.575,0.436 3.195,-0.36 4.0649996,-1.649 0.84,-1.261 0.766,-2.881 0.404,-3.676 0.496,-0.135 1.08,-0.195 1.83,-0.104 2.101,0.24 2.521,1.56 2.43,2.1 -0.09,0.539 -0.523,0.854 -0.674,0.944 -0.15,0.091 -0.195,0.12 -0.181,0.181 0.015,0.09 0.091,0.09 0.21,0.075 0.165,-0.03 1.096,-0.45 1.141,-1.471 0.045,-1.29 -1.186,-2.729 -3.375,-2.7 -0.9,0.016 -1.471,0.091 -1.875,0.256 -0.03,-0.045 -0.061,-0.075 -0.1049996,-0.105 -1.35,-1.455 -3.855,-2.475 -3.75,-4.41 0.03,-0.705 0.285,-2.564 4.7999996,-4.814 3.705,-1.846 6.661,-1.335 7.171,-0.21 0.733,1.604 -1.576,4.59 -5.431,5.024 -1.47,0.165 -2.235,-0.404 -2.431,-0.615 -0.209,-0.225 -0.239,-0.24 -0.314,-0.194 -0.1199996,0.06 -0.045,0.255 0,0.375 0.12,0.3 0.585,0.825 1.396,1.095 0.704,0.225 2.43,0.359 4.5,-0.45 2.324,-0.899 4.139,-3.405 3.614,-5.505 z"
     id="path4212"
     style="fill:#1f58d0;" />
  <path
     style="fill:#ffffff;stroke-width:0.328258;stroke-linecap:round"
     d="M 6.39807,20.98886 C 6.1339743,20.943402 5.9263784,20.875337 5.8137282,20.797271 5.5525361,20.616264 5.3221775,20.252016 5.2210236,19.860072 5.1135183,19.443518 5.1832016,18.845273 5.3965802,18.352886 5.6463684,17.77648 6.2044983,17.185073 7.092883,16.555445 7.648135,16.16192 8.3869757,15.718224 8.9240048,15.455802 9.0314837,15.403282 9.119421,15.351707 9.119421,15.341191 c 0,-0.0346 -0.4360398,-0.357154 -1.2882992,-0.953009 C 6.5404597,13.485817 6.0305894,13.075866 5.5066172,12.519208 4.9767613,11.956299 4.6310608,11.39624 4.4738028,10.845977 4.31034,10.274003 4.4103966,9.654194 4.7922479,8.8733414 5.7814964,6.850415 8.444244,4.8666929 11.884198,3.5899051 c 0.789846,-0.2931628 1.582389,-0.4898203 2.406326,-0.5970933 0.453062,-0.058987 1.520166,-0.068013 1.92178,-0.016255 1.295132,0.1669085 2.274638,0.6120824 2.845343,1.2931748 0.223437,0.266655 0.399152,0.6205736 0.411244,0.828314 0.005,0.086063 0.02235,0.2825051 0.03852,0.4365383 0.158995,1.5138242 -0.878466,3.3216307 -2.542396,4.4302017 -1.101925,0.7341434 -2.772342,1.2101244 -4.246832,1.2101244 -1.162588,0 -1.911673,-0.260603 -2.49313,-0.867347 C 9.9602614,10.031252 9.8276381,9.6579764 9.9639483,9.5726579 c 0.039523,-0.024738 0.085712,0.00492 0.2521137,0.161899 0.244304,0.230464 0.533958,0.3976001 0.886471,0.5115111 0.393019,0.127 0.668657,0.157306 1.25541,0.138027 1.766794,-0.05805 3.615111,-0.8724182 4.800798,-2.1152305 0.35942,-0.3767375 0.609446,-0.7277266 0.806772,-1.1325557 0.188004,-0.3857052 0.269186,-0.6675254 0.291885,-1.013269 0.05273,-0.803107 -0.321234,-1.2977223 -1.19974,-1.5868239 -0.504853,-0.1661384 -0.796441,-0.2053654 -1.525692,-0.2052495 -0.723328,1.158e-4 -1.0984,0.041682 -1.809409,0.2005272 -1.00256,0.2239803 -1.920922,0.565965 -2.997779,1.1163303 C 8.6229125,6.7220552 7.2539569,7.81093 6.5655714,8.9560797 6.2166013,9.5366018 6.0613913,10.286963 6.1690935,10.872849 c 0.086418,0.470101 0.3778604,0.970546 0.8461942,1.453026 0.3393337,0.349584 0.6218661,0.590926 1.4059478,1.200976 0.7058177,0.549158 0.9311821,0.739649 1.2846416,1.085854 l 0.2824753,0.276678 0.2167916,-0.06299 c 0.372766,-0.108312 0.751518,-0.152455 1.450976,-0.16911 0.756096,-0.018 1.050904,0.01461 1.545328,0.170965 1.206142,0.381423 2.028639,1.365464 2.02579,2.42367 -0.0012,0.463552 -0.171202,0.845448 -0.518467,1.165021 -0.321426,0.295794 -0.754878,0.462945 -0.776885,0.299588 -0.0058,-0.04292 0.03717,-0.08674 0.166047,-0.169382 0.480907,-0.308384 0.741538,-0.810576 0.666019,-1.283306 -0.144502,-0.90455 -1.009639,-1.576548 -2.26279,-1.757631 -0.473412,-0.06841 -0.903979,-0.08478 -1.268351,-0.04823 -0.268447,0.02693 -0.714808,0.104616 -0.744569,0.129589 -0.0035,0.0029 0.02488,0.09583 0.06303,0.20646 0.354793,1.028972 0.186812,2.414246 -0.407559,3.360968 -0.5908773,0.941159 -1.5390206,1.601453 -2.5958815,1.807791 -0.2956887,0.05773 -0.8878365,0.07116 -1.1497575,0.02607 z m 1.1088807,-1.174509 c 0.2634346,-0.0578 0.7309083,-0.282323 0.9755583,-0.468542 0.4182946,-0.318391 0.834676,-0.847486 1.0278674,-1.306111 0.2406247,-0.571228 0.2988017,-1.198132 0.169583,-1.827394 -0.024523,-0.119421 -0.048364,-0.220981 -0.052979,-0.225688 -0.013755,-0.01403 -0.6456814,0.336923 -0.9418171,0.523056 -0.8917502,0.560497 -1.602611,1.270325 -1.8984625,1.895704 -0.1450611,0.306634 -0.1914993,0.47806 -0.2071527,0.764701 -0.013595,0.24895 -0.00815,0.294586 0.049338,0.413335 0.1223238,0.252687 0.4209781,0.331236 0.8780646,0.230939 z"
     id="path4872" />
</svg>
