<?xml version="1.0" encoding="UTF-8" standalone="no"?>
<svg
   role="img"
   viewBox="0 0 24 24"
   version="1.1"
   id="svg6"
   sodipodi:docname="typescript.svg"
   inkscape:version="1.2.2 (732a01da63, 2022-12-09)"
   xmlns:inkscape="http://www.inkscape.org/namespaces/inkscape"
   xmlns:sodipodi="http://sodipodi.sourceforge.net/DTD/sodipodi-0.dtd"
   xmlns="http://www.w3.org/2000/svg"
   xmlns:svg="http://www.w3.org/2000/svg">
  <defs
     id="defs10" />
  <sodipodi:namedview
     id="namedview8"
     pagecolor="#ffffff"
     bordercolor="#000000"
     borderopacity="0.25"
     inkscape:showpageshadow="2"
     inkscape:pageopacity="0.0"
     inkscape:pagecheckerboard="0"
     inkscape:deskcolor="#d1d1d1"
     showgrid="false"
     inkscape:zoom="34.541667"
     inkscape:cx="10.335344"
     inkscape:cy="12.014475"
     inkscape:window-width="1920"
     inkscape:window-height="1009"
     inkscape:window-x="-8"
     inkscape:window-y="-8"
     inkscape:window-maximized="1"
     inkscape:current-layer="svg6" />
  <title
     id="title2">TypeScript</title>
  <path
     d="M1.125 0C.502 0 0 .502 0 1.125v21.75C0 23.498.502 24 1.125 24h21.75c.623 0 1.125-.502 1.125-1.125V1.125C24 .502 23.498 0 22.875 0zm17.363 9.75c.612 0 1.154.037 1.627.111a6.38 6.38 0 0 1 1.306.34v2.458a3.95 3.95 0 0 0-.643-.361 5.093 5.093 0 0 0-.717-.26 5.453 5.453 0 0 0-1.426-.2c-.3 0-.573.028-.819.086a2.1 2.1 0 0 0-.623.242c-.17.104-.3.229-.393.374a.888.888 0 0 0-.14.49c0 .196.053.373.156.529.104.156.252.304.443.444s.423.276.696.41c.273.135.582.274.926.416.47.197.892.407 1.266.628.374.222.695.473.963.753.268.279.472.598.614.957.142.359.214.776.214 1.253 0 .657-.125 1.21-.373 1.656a3.033 3.033 0 0 1-1.012 1.085 4.38 4.38 0 0 1-1.487.596c-.566.12-1.163.18-1.79.18a9.916 9.916 0 0 1-1.84-.164 5.544 5.544 0 0 1-1.512-.493v-2.63a5.033 5.033 0 0 0 3.237 1.2c.333 0 .624-.03.872-.09.249-.06.456-.144.623-.25.166-.108.29-.234.373-.38a1.023 1.023 0 0 0-.074-1.089 2.12 2.12 0 0 0-.537-.5 5.597 5.597 0 0 0-.807-.444 27.72 27.72 0 0 0-1.007-.436c-.918-.383-1.602-.852-2.053-1.405-.45-.553-.676-1.222-.676-2.005 0-.614.123-1.141.369-1.582.246-.441.58-.804 1.004-1.089a4.494 4.494 0 0 1 1.47-.629 7.536 7.536 0 0 1 1.77-.201zm-15.113.188h9.563v2.166H9.506v9.646H6.789v-9.646H3.375z"
     id="path4"
     style="fill:#0000ff" />
  <path
     style="fill:#ffffff;stroke:none;stroke-width:0.328258;stroke-linecap:round"
     d="M 6.7889023,16.921592 V 12.101327 H 5.0952955 3.4016888 v -1.07117 -1.0711703 h 4.7623643 4.7623639 v 1.0711703 1.07117 H 11.20386 9.4813028 v 4.820265 4.820266 H 8.1351025 6.7889023 Z"
     id="path991" />
  <path
     style="fill:#ffffff;stroke:none;stroke-width:0.328258;stroke-linecap:round"
     d="M 16.236407,21.870664 C 15.346241,21.773491 14.7145,21.618458 14.118148,21.350831 l -0.178462,-0.08009 v -1.287877 c 0,-1.252514 0.0015,-1.286786 0.05409,-1.248157 0.393594,0.289016 0.565484,0.398807 0.872326,0.557179 0.437425,0.225772 0.844338,0.370568 1.330035,0.47328 0.321426,0.06797 0.430691,0.07709 0.942582,0.07866 0.623905,0.0019 0.834521,-0.02732 1.207015,-0.16753 0.593885,-0.223537 0.877001,-0.643844 0.802666,-1.191619 -0.03124,-0.23022 -0.127156,-0.406926 -0.343165,-0.632219 -0.336694,-0.351167 -0.747134,-0.585293 -1.886713,-1.07623 -1.154915,-0.497545 -1.585604,-0.758459 -2.097996,-1.270981 -0.483107,-0.483228 -0.724838,-0.919382 -0.859661,-1.551084 -0.07044,-0.330056 -0.08231,-0.996257 -0.02373,-1.331725 0.221387,-1.267703 1.183152,-2.222035 2.637049,-2.616667 1.346597,-0.3655067 3.298475,-0.3089189 4.617611,0.133872 l 0.202654,0.06802 0.0076,1.210431 0.0076,1.210431 -0.09441,-0.06316 c -0.186745,-0.124938 -0.737341,-0.377074 -1.038817,-0.47571 -0.611518,-0.200074 -1.357602,-0.293233 -1.97436,-0.246528 -0.712495,0.05396 -1.228754,0.279875 -1.482948,0.648954 -0.128597,0.186718 -0.160851,0.298382 -0.161457,0.558981 -6.5e-4,0.279461 0.103861,0.51008 0.336654,0.742872 0.314518,0.314519 0.79397,0.579612 2.014236,1.113689 0.909078,0.397879 1.479267,0.742608 1.91854,1.159927 0.334237,0.317532 0.511647,0.553456 0.685763,0.911942 0.310553,0.639398 0.391205,1.440332 0.227163,2.2559 -0.114811,0.570806 -0.349627,1.02212 -0.754149,1.44947 -0.786935,0.831342 -2.069014,1.235883 -3.88916,1.227167 -0.334378,-0.0016 -0.766475,-0.02022 -0.960215,-0.04137 z"
     id="path993" />
</svg>
